<?xml version="1.0" standalone="no"?>
<!DOCTYPE svg PUBLIC "-//W3C//DTD SVG 1.1//EN" "http://www.w3.org/Graphics/SVG/1.1/DTD/svg11.dtd" >
<svg xmlns="http://www.w3.org/2000/svg">
<metadata></metadata>
<defs>
<font id="albrechtregular" horiz-adv-x="1184" >
<font-face units-per-em="2048" ascent="1638" descent="-410" />
<missing-glyph horiz-adv-x="592" />
<glyph horiz-adv-x="0" />
<glyph horiz-adv-x="682" />
<glyph unicode=" "  horiz-adv-x="592" />
<glyph unicode="&#x09;" horiz-adv-x="592" />
<glyph unicode="&#xa0;" horiz-adv-x="592" />
<glyph unicode="!" horiz-adv-x="304" d="M104 16v8h-8v8h-8v8h-8v8h-8v16h8v8h8v8h8v8h8v8h16v-8h8v-8h8v-8h8v-8h8v-16h-8v-8h-8v-8h-8v-8h-8v-8h-16zM64 128v8h8v8h8v32h8v48h8v864h-8v48h-8v32h-8v8h-8v8h96v-8h-8v-8h-8v-32h-8v-48h-8v-864h8v-48h8v-32h8v-8h8v-8h-96z" />
<glyph unicode="'" horiz-adv-x="112" d="M32 1048v16h8v8h8v24h-8v8h-8v8h-8v8h-8v16h8v8h8v8h8v8h8v8h16v-8h8v-8h8v-8h8v-8h8v-24h-8v-16h-8v-16h-8v-8h-8v-8h-8v-8h-16v-8h-8z" />
<glyph unicode="*" horiz-adv-x="1216" d="M816 32v8h32v8h32v8h32v8h8v8h16v8h8v8h8v8h16v8h8v8h8v8h8v8h8v8h8v8h8v8h8v8h8v16h8v48h-8v16h-8v16h-8v16h-8v8h-8v8h-8v8h-8v8h-8v8h-8v8h-16v8h-16v8h-8v8h-32v8h-704v-8h-32v-8h-8v-8h-16v-8h-16v-8h-8v-8h-8v-8h-8v-8h-8v-8h-8v-8h-8v-16h-8v-16h-8v-16h-8v-48h8 v-16h8v-8h8v-8h8v-8h8v-8h8v-8h8v-8h8v-8h8v-8h16v-8h8v-8h8v-8h16v-8h8v-8h32v-8h32v-8h32v-8h544zM848 384v8h32v8h8v8h16v8h16v8h8v8h8v8h8v8h8v8h8v8h8v8h8v8h8v8h8v8h8v16h8v16h8v16h8v16h8v16h8v32h8v48h8v32h8v80h8v112h-8v32h-8v32h-8v16h-8v16h-8v16h-8v16h-8v16 h-8v8h-8v8h-8v8h-8v8h-8v8h-8v8h-8v8h-8v8h-16v8h-8v8h-8v8h-16v8h-8v8h-32v8h-32v8h-32v8h-496v-8h-32v-8h-32v-8h-32v-8h-8v-8h-16v-8h-8v-8h-8v-8h-16v-8h-8v-8h-8v-8h-8v-8h-8v-8h-8v-8h-8v-8h-8v-8h-8v-16h-8v-16h-8v-16h-8v-16h-8v-16h-8v-32h-8v-32h-8v-112h8v-80h8 v-32h8v-48h8v-32h8v-16h8v-16h8v-16h8v-16h8v-16h8v-8h8v-8h8v-8h8v-8h8v-8h8v-8h8v-8h8v-8h8v-8h8v-8h16v-8h16v-8h8v-8h32v-8h592zM432 0v8h-112v8h-64v8h-48v8h-32v8h-16v8h-16v8h-16v8h-16v8h-8v8h-8v8h-8v8h-8v8h-8v8h-8v8h-8v8h-8v16h-8v8h-8v8h-8v16h-8v16h-8v64h8 v16h8v8h8v8h8v8h8v8h8v8h8v8h8v8h8v8h16v8h16v8h16v8h16v8h32v8h16v8h-16v8h-16v8h-16v8h-8v8h-8v8h-8v8h-8v8h-8v8h-8v8h-8v8h-8v16h-8v8h-8v8h-8v16h-8v16h-8v16h-8v16h-8v16h-8v32h-8v80h-8v176h8v48h8v32h8v16h8v16h8v16h8v16h8v16h8v8h8v8h8v16h8v8h8v8h8v8h8v8h8v8h8 v8h8v8h8v8h16v8h16v8h16v8h16v8h32v8h48v8h64v8h112v8h176v-8h112v-8h64v-8h48v-8h32v-8h16v-8h16v-8h16v-8h16v-8h8v-8h8v-8h8v-8h8v-8h8v-8h8v-8h8v-8h8v-16h8v-8h8v-8h8v-16h8v-16h8v-16h8v-16h8v-16h8v-32h8v-48h8v-176h-8v-80h-8v-32h-8v-16h-8v-16h-8v-16h-8v-16h-8 v-16h-8v-8h-8v-8h-8v-16h-8v-8h-8v-8h-8v-8h-8v-8h-8v-8h-8v-8h-8v-8h-8v-8h-16v-8h-16v-8h-16v-8h16v-8h16v-8h16v-8h16v-8h16v-8h16v-8h8v-8h8v-8h8v-8h8v-8h8v-8h8v-8h8v-8h8v-16h8v-64h-8v-16h-8v-16h-8v-8h-8v-8h-8v-16h-8v-8h-8v-8h-8v-8h-8v-8h-8v-8h-8v-8h-8v-8h-8 v-8h-16v-8h-16v-8h-16v-8h-16v-8h-32v-8h-48v-8h-64v-8h-112v-8h-224z" />
<glyph unicode="," horiz-adv-x="288" d="M80 488v16h8v8h8v24h-8v8h-8v8h-8v8h-8v16h8v8h8v8h8v8h8v8h16v-8h8v-8h8v-8h8v-8h8v-24h-8v-16h-8v-16h-8v-8h-8v-8h-8v-8h-16v-8h-8z" />
<glyph unicode="-" d="M0 512v96h8v-8h8v-8h32v-8h48v-8h992v8h48v8h32v8h8v8h8v-96h-8v8h-8v8h-32v8h-48v8h-992v-8h-48v-8h-32v-8h-8v-8h-8z" />
<glyph unicode="." horiz-adv-x="304" d="M144 528v8h-8v8h-8v8h-8v8h-8v16h8v8h8v8h8v8h8v8h16v-8h8v-8h8v-8h8v-8h8v-16h-8v-8h-8v-8h-8v-8h-8v-8h-16z" />
<glyph unicode="/" horiz-adv-x="368" d="M-16 0v8h8v8h8v8h8v8h8v16h8v32h8v32h8v32h8v32h8v32h8v32h8v32h8v32h8v32h8v32h8v32h8v32h8v32h8v32h8v32h8v32h8v32h8v32h8v32h8v32h8v32h8v32h8v32h8v32h8v32h8v32h8v32h8v32h8v32h8v32h8v32h8v32h8v32h8v48h-8v16h-8v8h-16v8h128v-8h-16v-8h-8v-8h-8v-8h-8v-8h-8v-8 h-8v-32h-8v-16h-8v-32h-8v-32h-8v-32h-8v-32h-8v-32h-8v-32h-8v-32h-8v-32h-8v-32h-8v-32h-8v-32h-8v-32h-8v-32h-8v-32h-8v-32h-8v-32h-8v-32h-8v-32h-8v-32h-8v-32h-8v-16h-8v-48h-8v-32h-8v-32h-8v-32h-8v-32h-8v-32h-8v-32h-8v-32h-8v-32h-8v-32h-8v-64h8v-24h8v-8h-96z " />
<glyph unicode="0" horiz-adv-x="1104" d="M704 32v8h32v8h32v8h32v8h8v8h16v8h8v8h8v8h16v8h8v8h8v8h8v8h8v8h8v8h8v8h8v8h8v16h8v16h8v16h8v16h8v16h8v32h8v480h-8v112h-8v48h-8v32h-8v16h-8v16h-8v16h-8v16h-8v16h-8v8h-8v8h-8v8h-8v8h-8v8h-8v8h-8v8h-8v8h-8v8h-8v8h-16v8h-16v8h-8v8h-32v8h-32v8h-48v8h-368 v-8h-32v-8h-32v-8h-32v-8h-8v-8h-16v-8h-8v-8h-8v-8h-16v-8h-8v-8h-8v-8h-8v-8h-8v-8h-8v-8h-8v-8h-8v-8h-8v-16h-8v-16h-8v-16h-8v-16h-8v-16h-8v-32h-8v-480h8v-112h8v-48h8v-32h8v-16h8v-16h8v-16h8v-16h8v-16h8v-8h8v-8h8v-8h8v-8h8v-8h8v-8h8v-8h8v-8h8v-8h8v-8h16v-8 h16v-8h8v-8h32v-8h32v-8h48v-8h368zM496 0v8h-144v8h-80v8h-32v8h-32v8h-16v8h-16v8h-16v8h-16v8h-8v8h-8v8h-8v8h-8v8h-8v8h-8v8h-8v8h-8v16h-8v8h-8v8h-8v16h-8v16h-8v16h-8v16h-8v16h-8v32h-8v640h8v32h8v16h8v16h8v16h8v16h8v16h8v8h8v8h8v16h8v8h8v8h8v8h8v8h8v8h8v8h8 v8h8v8h16v8h16v8h16v8h16v8h32v8h48v8h64v8h112v8h48v-8h144v-8h80v-8h32v-8h32v-8h16v-8h16v-8h16v-8h16v-8h8v-8h8v-8h8v-8h8v-8h8v-8h8v-8h8v-8h8v-16h8v-8h8v-8h8v-16h8v-16h8v-16h8v-16h8v-16h8v-32h8v-640h-8v-32h-8v-16h-8v-16h-8v-16h-8v-16h-8v-16h-8v-8h-8v-8h-8 v-16h-8v-8h-8v-8h-8v-8h-8v-8h-8v-8h-8v-8h-8v-8h-8v-8h-16v-8h-16v-8h-16v-8h-16v-8h-32v-8h-48v-8h-64v-8h-112v-8h-48z" />
<glyph unicode="1" horiz-adv-x="160" d="M0 0v8h8v8h8v32h8v48h8v992h-8v48h-8v32h-8v8h-8v8h96v-8h-8v-8h-8v-32h-8v-48h-8v-992h8v-48h8v-32h8v-8h8v-8h-96z" />
<glyph unicode="2" horiz-adv-x="1232" d="M528 0v8h8v8h8v32h8v48h8v880h-8v32h-8v32h-8v16h-8v16h-8v16h-8v8h-8v8h-8v8h-8v8h-8v8h-32v8h-32v8h-32v8h-320v-8h-32v-8h-16v-8h-8v-8h-8v64h224v-8h112v-8h64v-8h48v-8h32v-8h16v-8h16v-8h8v-8h8v-8h8v-8h8v-16h8v-16h8v-16h8v-16h8v-32h8v-48h8v-864h8v-48h8v-8h8 v-8h488v8h32v8h16v8h8v8h8v-64h-640z" />
<glyph unicode="3" horiz-adv-x="976" d="M0 0v64h8v-8h8v-8h16v-8h32v-8h480v8h32v8h32v8h32v8h8v8h16v8h8v8h8v8h16v8h8v8h8v8h8v8h8v8h8v8h8v8h8v8h8v16h8v16h8v16h8v16h8v16h8v64h-8v48h-8v32h-8v16h-8v16h-8v16h-8v16h-8v16h-8v8h-8v8h-8v8h-8v8h-8v8h-8v8h-8v8h-8v8h-8v8h-8v8h-16v8h-16v8h-8v8h-32v8h-32v8 h-48v8h-256v-8h-32v-8h-16v-8h-8v-8h-8v96h8v-8h8v-8h16v-8h32v-8h288v8h32v8h32v8h32v8h8v8h16v8h8v8h8v8h16v8h8v8h8v8h8v8h8v8h8v8h8v8h8v8h8v16h8v16h8v16h8v16h8v16h8v48h-8v48h-8v32h-8v16h-8v16h-8v16h-8v16h-8v16h-8v8h-8v8h-8v8h-8v8h-8v8h-8v8h-8v8h-8v8h-8v8h-8 v8h-16v8h-16v8h-8v8h-32v8h-528v-8h-32v-8h-16v-8h-8v-8h-8v64h576v-8h32v-8h32v-8h16v-8h16v-8h16v-8h16v-8h8v-8h8v-8h8v-8h8v-8h8v-8h8v-8h8v-8h8v-16h8v-8h8v-8h8v-16h8v-16h8v-16h8v-16h8v-16h8v-32h8v-80h-8v-16h-8v-16h-8v-16h-8v-16h-8v-16h-8v-16h-8v-8h-8v-8h-8 v-16h-8v-8h-8v-8h-8v-8h-8v-8h-8v-8h-8v-8h-8v-8h-8v-8h-16v-8h-16v-8h-16v-8h-16v-8h-32v-8h-48v-8h16v-8h32v-8h32v-8h16v-8h16v-8h16v-8h16v-8h8v-8h8v-8h8v-8h8v-8h8v-8h8v-8h8v-8h8v-16h8v-8h8v-8h8v-16h8v-16h8v-16h8v-16h8v-16h8v-32h8v-80h-8v-32h-8v-16h-8v-16h-8 v-16h-8v-16h-8v-16h-8v-8h-8v-8h-8v-16h-8v-8h-8v-8h-8v-8h-8v-8h-8v-8h-8v-8h-8v-8h-8v-8h-16v-8h-16v-8h-16v-8h-16v-8h-32v-8h-48v-8h-64v-8h-112v-8h-384z" />
<glyph unicode="4" horiz-adv-x="1104" d="M576 624v464h-8v40h-8v-8h-8v-8h-8v-8h-8v-8h-8v-8h-8v-8h-8v-8h-8v-8h-8v-8h-8v-8h-8v-8h-8v-8h-8v-8h-8v-8h-8v-8h-8v-8h-8v-8h-8v-8h-8v-8h-8v-8h-8v-8h-8v-8h-8v-8h-8v-8h-8v-8h-8v-8h-8v-8h-8v-8h-8v-8h-8v-8h-8v-8h-8v-8h-8v-8h-8v-8h-8v-8h-8v-8h-8v-8h-8v-8h-8 v-8h-8v-8h-8v-8h-8v-8h-8v-8h-8v-8h-8v-8h-8v-8h-8v-8h-8v-8h-8v-8h-8v-8h-8v-8h-8v-8h-8v-8h-8v-8h-8v-8h-8v-8h-8v-8h-8v-8h-8v-8h-8v-8h-8v-8h-8v-8h-8v-8h512zM544 0v8h8v8h8v32h8v48h8v496h-576v8h8v8h8v8h8v8h8v8h8v8h8v8h8v8h8v8h8v8h8v8h8v8h8v8h8v8h8v8h8v8h8v8h8 v8h8v8h8v8h8v8h8v8h8v8h8v8h8v8h8v8h8v8h8v8h8v8h8v8h8v8h8v8h8v8h8v8h8v8h8v8h8v8h8v8h8v8h8v8h8v8h8v8h8v8h8v8h8v8h8v8h8v8h8v8h8v8h8v8h8v8h8v8h8v8h8v8h8v8h8v8h8v8h8v8h8v8h8v8h8v8h8v8h8v8h8v8h8v8h8v8h8v8h8v8h8v8h8v8h8v8h8v8h8v8h8v8h56v-8h-8v-8h-8v-32h-8v-48 h-8v-464h272v8h48v8h32v8h8v8h8v-96h-8v8h-8v8h-32v8h-48v8h-272v-496h8v-48h8v-32h8v-8h8v-8h-96z" />
<glyph unicode="5" horiz-adv-x="1200" d="M0 0v64h8v-8h8v-8h16v-8h32v-8h704v8h32v8h32v8h32v8h8v8h16v8h8v8h8v8h16v8h8v8h8v8h8v8h8v8h8v8h8v8h8v8h8v16h8v16h8v16h8v16h8v16h8v32h8v32h8v144h-8v80h-8v32h-8v48h-8v32h-8v16h-8v16h-8v16h-8v16h-8v16h-8v8h-8v8h-8v8h-8v8h-8v8h-8v8h-8v8h-8v8h-8v8h-8v8h-16v8 h-16v8h-8v8h-32v8h-752v-8h-64v24h8v16h8v32h8v48h8v48h8v48h8v48h8v48h8v48h592v-64h-8v8h-8v8h-16v8h-32v8h-488v-16h-8v-48h-8v-48h-8v-48h-8v-48h-8v-48h-8v-16h-8v-16h752v-8h32v-8h32v-8h16v-8h16v-8h16v-8h16v-8h8v-8h8v-8h8v-8h8v-8h8v-8h8v-8h8v-8h8v-16h8v-8h8v-8 h8v-16h8v-16h8v-16h8v-16h8v-16h8v-32h8v-80h8v-208h-8v-48h-8v-32h-8v-16h-8v-16h-8v-16h-8v-16h-8v-16h-8v-8h-8v-8h-8v-16h-8v-8h-8v-8h-8v-8h-8v-8h-8v-8h-8v-8h-8v-8h-8v-8h-16v-8h-16v-8h-16v-8h-16v-8h-32v-8h-48v-8h-64v-8h-112v-8h-608z" />
<glyph unicode="6" horiz-adv-x="1056" d="M768 32v8h32v8h32v8h32v8h8v8h16v8h8v8h8v8h16v8h8v8h8v8h8v8h8v8h8v8h8v8h8v8h8v16h8v48h-8v16h-8v16h-8v16h-8v8h-8v8h-8v8h-8v8h-8v8h-8v8h-16v8h-16v8h-8v8h-32v8h-808v-16h8v-32h8v-48h8v-32h8v-16h8v-16h8v-16h8v-16h8v-16h8v-8h8v-8h8v-8h8v-8h8v-8h8v-8h8v-8h8 v-8h8v-8h8v-8h16v-8h16v-8h8v-8h32v-8h512zM272 0v8h-32v8h-32v8h-16v8h-16v8h-16v8h-16v8h-8v8h-8v8h-8v8h-8v8h-8v8h-8v8h-8v8h-8v16h-8v8h-8v8h-8v16h-8v16h-8v16h-8v16h-8v16h-8v32h-8v80h-8v432h8v64h8v64h8v48h8v48h8v48h8v32h8v8h8v16h8v8h8v8h8v8h16v8h8v8h16v8h16 v8h16v8h16v8h32v8h48v8h400v-64h-8v8h-8v8h-16v8h-32v8h-224v-8h-80v-8h-64v-8h-32v-8h-32v-8h-16v-8h-16v-8h-8v-8h-8v-8h-8v-8h-8v-16h-8v-16h-8v-48h-8v-48h-8v-48h-8v-32h-8v-96h-8v-64h-8v-288h8v-32h792v-8h32v-8h32v-8h16v-8h16v-8h16v-8h16v-8h8v-8h8v-8h8v-8h8v-8 h8v-8h8v-8h8v-8h8v-16h8v-64h-8v-16h-8v-16h-8v-8h-8v-8h-8v-16h-8v-8h-8v-8h-8v-8h-8v-8h-8v-8h-8v-8h-8v-8h-8v-8h-16v-8h-16v-8h-16v-8h-16v-8h-32v-8h-48v-8h-64v-8h-112v-8h-336z" />
<glyph unicode="7" horiz-adv-x="864" d="M336 0v8h8v8h8v8h8v8h8v16h8v32h8v32h8v32h8v32h8v32h8v32h8v32h8v32h8v32h8v32h8v32h8v32h8v32h8v32h8v32h8v32h8v32h8v32h8v32h8v32h8v32h8v32h8v32h8v32h8v32h8v32h8v32h8v32h8v32h8v32h8v32h8v32h8v32h8v48h-576v-8h-32v-8h-16v-8h-8v-8h-8v64h720v-8h-16v-8h-8v-16 h-8v-8h-8v-16h-8v-16h-8v-24h-8v-32h-8v-32h-8v-32h-8v-32h-8v-32h-8v-32h-8v-32h-8v-32h-8v-32h-8v-32h-8v-32h-8v-32h-8v-32h-8v-32h-8v-32h-8v-32h-8v-32h-8v-32h-8v-32h-8v-32h-8v-32h-8v-32h-8v-32h-8v-32h-8v-32h-8v-32h-8v-32h-8v-32h-8v-32h-8v-32h-8v-48h-8v-72h8 v-8h-80z" />
<glyph unicode="8" horiz-adv-x="1264" d="M800 32v8h32v8h32v8h32v8h8v8h16v8h8v8h8v8h16v8h8v8h8v8h8v8h8v8h8v8h8v8h8v8h8v16h8v16h8v16h8v16h8v16h8v32h8v32h8v112h-8v80h-8v32h-8v48h-8v32h-8v16h-8v16h-8v16h-8v16h-8v16h-8v8h-8v8h-8v8h-8v8h-8v8h-8v8h-8v8h-8v8h-8v8h-8v8h-16v8h-16v8h-8v8h-32v8h-592v-8 h-32v-8h-8v-8h-16v-8h-16v-8h-8v-8h-8v-8h-8v-8h-8v-8h-8v-8h-8v-8h-8v-8h-8v-8h-8v-8h-8v-16h-8v-16h-8v-16h-8v-16h-8v-16h-8v-32h-8v-48h-8v-32h-8v-80h-8v-112h8v-32h8v-32h8v-16h8v-16h8v-16h8v-16h8v-16h8v-8h8v-8h8v-8h8v-8h8v-8h8v-8h8v-8h8v-8h16v-8h8v-8h8v-8h16 v-8h8v-8h32v-8h32v-8h32v-8h496zM896 832v8h32v8h8v8h16v8h16v8h8v8h8v8h8v8h8v8h8v8h8v16h8v16h8v16h8v48h-8v16h-8v8h-8v8h-8v8h-8v8h-8v8h-8v8h-8v8h-8v8h-16v8h-8v8h-8v8h-16v8h-8v8h-32v8h-32v8h-32v8h-544v-8h-32v-8h-32v-8h-32v-8h-8v-8h-16v-8h-8v-8h-8v-8h-16v-8 h-8v-8h-8v-8h-8v-8h-8v-8h-8v-8h-8v-8h-8v-8h-8v-16h-8v-48h8v-16h8v-16h8v-16h8v-8h8v-8h8v-8h8v-8h8v-8h8v-8h16v-8h16v-8h8v-8h32v-8h704zM464 0v8h-112v8h-64v8h-48v8h-32v8h-16v8h-16v8h-16v8h-16v8h-8v8h-8v8h-8v8h-8v8h-8v8h-8v8h-8v8h-8v16h-8v8h-8v8h-8v16h-8v16 h-8v16h-8v16h-8v16h-8v32h-8v48h-8v176h8v80h8v32h8v16h8v16h8v16h8v16h8v16h8v8h8v8h8v16h8v8h8v8h8v8h8v8h8v8h8v8h8v8h8v8h16v8h16v8h16v8h-16v8h-32v8h-16v8h-16v8h-16v8h-16v8h-8v8h-8v8h-8v8h-8v8h-8v8h-8v8h-8v8h-8v16h-8v64h8v16h8v16h8v8h8v8h8v16h8v8h8v8h8v8h8v8 h8v8h8v8h8v8h8v8h16v8h16v8h16v8h16v8h32v8h48v8h64v8h112v8h224v-8h112v-8h64v-8h48v-8h32v-8h16v-8h16v-8h16v-8h16v-8h8v-8h8v-8h8v-8h8v-8h8v-8h8v-8h8v-8h8v-16h8v-8h8v-8h8v-16h8v-16h8v-64h-8v-16h-8v-8h-8v-8h-8v-8h-8v-8h-8v-8h-8v-8h-8v-8h-8v-8h-16v-8h-16v-8 h-16v-8h-16v-8h-16v-8h-16v-8h16v-8h16v-8h16v-8h8v-8h8v-8h8v-8h8v-8h8v-8h8v-8h8v-8h8v-16h8v-8h8v-8h8v-16h8v-16h8v-16h8v-16h8v-16h8v-32h8v-80h8v-176h-8v-48h-8v-32h-8v-16h-8v-16h-8v-16h-8v-16h-8v-16h-8v-8h-8v-8h-8v-16h-8v-8h-8v-8h-8v-8h-8v-8h-8v-8h-8v-8h-8 v-8h-8v-8h-16v-8h-16v-8h-16v-8h-16v-8h-32v-8h-48v-8h-64v-8h-112v-8h-176z" />
<glyph unicode="9" horiz-adv-x="1152" d="M1000 832v16h-8v32h-8v48h-8v32h-8v16h-8v16h-8v16h-8v16h-8v16h-8v8h-8v8h-8v8h-8v8h-8v8h-8v8h-8v8h-8v8h-8v8h-8v8h-16v8h-16v8h-8v8h-32v8h-512v-8h-32v-8h-32v-8h-32v-8h-8v-8h-16v-8h-8v-8h-8v-8h-16v-8h-8v-8h-8v-8h-8v-8h-8v-8h-8v-8h-8v-8h-8v-8h-8v-16h-8v-48 h8v-16h8v-16h8v-16h8v-8h8v-8h8v-8h8v-8h8v-8h8v-8h16v-8h16v-8h8v-8h32v-8h808zM384 0v64h8v-8h8v-8h16v-8h32v-8h224v8h80v8h64v8h32v8h32v8h16v8h16v8h8v8h8v8h8v8h8v16h8v16h8v48h8v48h8v48h8v32h8v96h8v64h8v288h-8v32h-792v8h-32v8h-32v8h-16v8h-16v8h-16v8h-16v8h-8 v8h-8v8h-8v8h-8v8h-8v8h-8v8h-8v8h-8v16h-8v64h8v16h8v16h8v8h8v8h8v16h8v8h8v8h8v8h8v8h8v8h8v8h8v8h8v8h16v8h16v8h16v8h16v8h32v8h48v8h64v8h112v8h336v-8h32v-8h32v-8h16v-8h16v-8h16v-8h16v-8h8v-8h8v-8h8v-8h8v-8h8v-8h8v-8h8v-8h8v-16h8v-8h8v-8h8v-16h8v-16h8v-16h8 v-16h8v-16h8v-32h8v-80h8v-432h-8v-64h-8v-64h-8v-48h-8v-48h-8v-48h-8v-32h-8v-8h-8v-16h-8v-8h-8v-8h-8v-8h-16v-8h-8v-8h-16v-8h-16v-8h-16v-8h-16v-8h-32v-8h-48v-8h-400z" />
<glyph unicode=":" horiz-adv-x="224" d="M96 320v8h-8v8h-8v8h-8v8h-8v16h8v8h8v8h8v8h8v8h16v-8h8v-8h8v-8h8v-8h8v-16h-8v-8h-8v-8h-8v-8h-8v-8h-16zM96 784v8h-8v8h-8v8h-8v8h-8v16h8v8h8v8h8v8h8v8h16v-8h8v-8h8v-8h8v-8h8v-16h-8v-8h-8v-8h-8v-8h-8v-8h-16z" />
<glyph unicode=";" horiz-adv-x="224" d="M80 280v16h8v8h8v24h-8v8h-8v8h-8v8h-8v16h8v8h8v8h8v8h8v8h16v-8h8v-8h8v-8h8v-8h8v-24h-8v-16h-8v-16h-8v-8h-8v-8h-8v-8h-16v-8h-8zM96 784v8h-8v8h-8v8h-8v8h-8v16h8v8h8v8h8v8h8v8h16v-8h8v-8h8v-8h8v-8h8v-16h-8v-8h-8v-8h-8v-8h-8v-8h-16z" />
<glyph unicode="?" d="M104 16v8h-8v8h-8v8h-8v8h-8v16h8v8h8v8h8v8h8v8h16v-8h8v-8h8v-8h8v-8h8v-16h-8v-8h-8v-8h-8v-8h-8v-8h-16zM64 128v8h8v8h8v48h8v16h-8v32h-8v48h-8v32h-8v16h-8v24h64v-8h752v8h32v8h8v8h16v8h16v8h8v8h8v8h8v8h8v8h8v8h8v8h8v8h8v8h8v8h8v16h8v16h8v16h8v16h8v16h8 v32h8v48h8v32h8v80h8v144h-8v32h-8v32h-8v16h-8v16h-8v16h-8v16h-8v16h-8v8h-8v8h-8v8h-8v8h-8v8h-8v8h-8v8h-8v8h-16v8h-8v8h-8v8h-16v8h-8v8h-32v8h-32v8h-96v8h-640v-8h-32v-8h-16v-8h-8v-8h-8v64h608v-8h112v-8h96v-8h32v-8h16v-8h16v-8h16v-8h16v-8h16v-8h8v-8h8v-8h8 v-8h8v-8h8v-8h8v-8h8v-8h8v-16h8v-8h8v-8h8v-16h8v-16h8v-16h8v-16h8v-16h8v-32h8v-48h8v-208h-8v-80h-8v-32h-8v-16h-8v-16h-8v-16h-8v-16h-8v-16h-8v-8h-8v-8h-8v-16h-8v-8h-8v-8h-8v-8h-8v-8h-8v-8h-8v-8h-8v-8h-8v-8h-16v-8h-16v-8h-16v-8h-16v-8h-32v-8h-32v-8h-744 v-16h8v-32h8v-32h8v-48h8v-16h8v-32h8v-8h8v-8h-96z" />
<glyph unicode="@" horiz-adv-x="1168" d="M1024 352v64h8v64h8v288h-8v80h-8v32h-8v48h-8v32h-8v16h-8v16h-8v16h-8v16h-8v16h-8v8h-8v8h-8v8h-8v8h-8v8h-8v8h-8v8h-8v8h-8v8h-8v8h-16v8h-16v8h-8v8h-32v8h-512v-8h-32v-8h-32v-8h-32v-8h-8v-8h-16v-8h-8v-8h-8v-8h-16v-8h-8v-8h-8v-8h-8v-8h-8v-8h-8v-8h-8v-8h-8 v-8h-8v-16h-8v-16h-8v-16h-8v-16h-8v-16h-8v-32h-8v-32h-8v-144h8v-80h8v-32h8v-48h8v-32h8v-16h8v-16h8v-16h8v-16h8v-16h8v-8h8v-8h8v-8h8v-8h8v-8h8v-8h8v-8h8v-8h8v-8h8v-8h16v-8h16v-8h8v-8h32v-8h768zM416 0v64h8v-8h8v-8h16v-8h32v-8h224v8h80v8h64v8h32v8h32v8h16v8 h16v8h8v8h8v8h8v8h8v16h8v16h8v48h8v48h8v48h8v32h-744v8h-32v8h-32v8h-16v8h-16v8h-16v8h-16v8h-8v8h-8v8h-8v8h-8v8h-8v8h-8v8h-8v8h-8v16h-8v8h-8v8h-8v16h-8v16h-8v16h-8v16h-8v16h-8v32h-8v80h-8v208h8v48h8v32h8v16h8v16h8v16h8v16h8v16h8v8h8v8h8v16h8v8h8v8h8v8h8v8 h8v8h8v8h8v8h8v8h16v8h16v8h16v8h16v8h32v8h48v8h64v8h112v8h336v-8h32v-8h32v-8h16v-8h16v-8h16v-8h16v-8h8v-8h8v-8h8v-8h8v-8h8v-8h8v-8h8v-8h8v-16h8v-8h8v-8h8v-16h8v-16h8v-16h8v-16h8v-16h8v-32h8v-80h8v-432h-8v-64h-8v-64h-8v-48h-8v-48h-8v-48h-8v-32h-8v-8h-8 v-16h-8v-8h-8v-8h-8v-8h-16v-8h-8v-8h-16v-8h-16v-8h-16v-8h-16v-8h-32v-8h-48v-8h-400z" />
<glyph unicode="A" horiz-adv-x="1248" d="M368 856v8h520v32h-8v32h-8v32h-8v32h-8v32h-8v32h-8v32h-8v16h-8v32h-8v16h-472v-16h-8v-16h-8v-32h-8v-32h-8v-32h-8v-32h-8v-32h-8v-32h-8v-32h-8v-32h56v8h8v-8h16v-8h16zM0 0v8h8v8h8v8h8v8h8v16h8v32h8v32h8v32h8v32h8v32h8v32h8v32h16v16h-8v16h8v32h8v32h8v32h8 v32h8v32h8v32h8v32h8v32h8v32h8v32h8v32h8v32h8v32h8v16h8v48h8v32h8v32h8v32h8v48h8v16h8v32h8v32h8v32h8v32h8v32h8v48h-8v16h-8v8h-16v8h144v-8h16v8h208v-16h8v8h8v8h184v8h8v-8h48v-8h-16v-8h-8v-16h-8v-48h8v-32h8v-32h8v-32h8v-32h8v-32h8v-32h8v-32h8v-32h8v-32h8 v-32h8v-32h8v-32h8v-32h8v-32h16v-64h8v-32h8v-32h8v-32h8v-32h8v-32h8v-32h8v-32h8v-32h8v-32h8v-32h8v-32h8v-32h8v-32h8v-32h8v-32h8v-32h8v-32h8v-16h8v-8h8v-8h8v-8h8v-8h-96v8h8v24h8v64h-8v32h-8v32h-8v32h-8v32h-8v32h-8v32h-8v32h-8v32h-8v32h-8v16h8v32h-16v16h-8 v32h-8v32h-8v32h-8v32h-8v32h-8v32h-8v32h-8v32h-8v32h-8v32h-8v32h-8v32h-168v8h-16v-8h-16v-8h-16v8h-432v-32h-8v-32h-8v-32h-8v-32h-8v-32h-8v-32h-8v-32h-8v-32h-8v-32h-8v-32h-8v-32h-8v-32h-8v-32h-8v-32h-8v-32h-8v-32h-8v-32h-8v-32h-8v-32h-8v-32h-8v-48h-8v8h-8 v-8h8v-16h-8v-48h-8v-72h8v-8h-40v8h-8v-8h-32z" />
<glyph unicode="B" horiz-adv-x="1024" d="M56 48v8h-8v-8h8zM344 16v8h8v8h16v8h16v-8h224v8h32v8h32v8h32v8h8v8h16v8h8v8h8v8h16v8h8v8h8v8h8v8h8v8h8v8h8v8h8v8h8v16h8v16h8v16h8v16h8v16h8v48h16v8h-8v8h-16v48h-8v32h-8v16h-8v16h-8v16h-8v16h-8v16h-8v8h-8v8h-8v8h-8v8h-8v8h-8v8h-8v8h-8v8h-8v8h-8v8h-16v8 h-16v8h-8v8h-32v8h-32v8h-48v8h-48v8h-8v8h-8v-8h-24v-8h-408v16h-8v-8h-8v-504h8v-48h8v-16h256v-16h8zM608 624v8h32v8h32v8h32v8h8v8h16v8h8v8h8v8h16v8h8v8h8v8h8v8h8v8h8v8h8v8h8v8h8v16h8v16h8v16h8v16h8v16h8v48h-8v48h-8v32h-8v16h-8v16h-8v16h-8v16h-8v16h-8v8h-8 v8h-8v8h-8v8h-8v8h-8v8h-8v8h-8v8h-8v8h-8v8h-16v8h-16v8h-8v8h-32v8h-304v8h-16v-8h-256v-16h-8v-48h-8v-464h544zM0 0v8h8v8h8v32h8v48h8v352h8v8h-8v632h-8v48h-8v32h-8v8h-8v8h488v-8h-8v-8h16v8h16v8h128v-8h32v-8h32v-8h16v-8h16v-8h16v-8h16v-8h8v-8h8v-8h8v-8h8v-8 h8v-8h8v-8h8v-8h8v-16h8v-8h8v-8h8v-16h8v-16h8v-16h8v-16h8v-16h8v-32h8v-80h-8v-16h-8v-16h-8v-16h-8v-16h-8v-16h-8v-16h-8v-8h-8v-8h-8v-16h-8v-8h-8v-8h-8v-8h-8v-8h-8v-8h-8v-8h-8v-8h-8v-8h-16v-8h-16v-8h-16v-8h-16v-8h-32v-8h-48v-8h16v-8h32v-8h32v-8h16v-8h16v-8 h16v-8h16v-8h8v-8h8v-8h8v-8h8v-8h8v-8h8v-8h8v-8h8v-16h8v-8h8v-8h8v-16h8v-16h8v-16h8v-16h8v-16h8v-32h8v-80h-8v-32h-8v-16h-8v-16h-8v-16h-8v-16h-8v-16h-8v-8h-8v-8h-8v-16h-8v-8h-8v-8h-8v-8h-8v-8h-8v-8h-8v-8h-8v-8h-8v-8h-16v-8h-16v-8h-16v-8h-16v-8h-32v-8h-48 v-8h-64v-8h-64v-8h-16v8h-32v-8h-384v8h-16v-8h-48z" />
<glyph unicode="C" horiz-adv-x="1088" d="M32 648v8h-8v-8h8zM432 1160v8h-16v-8h16zM496 0v8h-144v8h-80v8h-32v8h-32v8h-16v8h-16v8h-16v8h-16v8h-8v8h-8v8h-8v8h-8v8h-8v8h-8v8h-8v8h-8v16h-24v8h8v8h-8v16h-8v16h-8v16h-8v16h-8v16h-8v32h-8v640h8v32h8v16h8v16h8v16h8v16h8v16h8v8h8v8h8v16h8v8h8v8h8v8h8v8 h8v8h8v8h8v8h8v8h16v8h16v8h16v8h16v8h32v8h48v8h64v8h112v8h416v-8h16v8h80v-8h-8v-8h-8v-8h16v-40h-8v8h-8v8h-16v8h-32v8h-16v-8h-8v8h-584v-8h-32v-8h-32v-8h-32v-8h-8v-8h-16v-8h-8v-8h-8v-8h-16v-8h-8v-8h-8v-8h-8v-8h-8v-8h-8v-8h-8v-8h-8v-8h-8v-16h-8v-16h-8v-16 h-8v-16h-8v-16h-8v-32h-8v-408h8v-24h-8v16h-8v-24h8v-40h8v-112h8v-48h8v-32h8v-16h8v-16h8v-16h8v-16h8v-16h8v-8h8v-8h8v-8h8v-8h8v-8h8v-8h8v-8h8v-8h8v-8h8v-8h16v-8h16v-8h8v-8h32v-8h32v-8h48v-8h408v-8h8v8h176v8h-8v8h24v-8h16v8h16v8h8v8h8v-64h-496z" />
<glyph unicode="D" horiz-adv-x="1088" d="M568 40v8h8v-8h-8zM944 696v8h8v-8h-8zM688 32v8h32v8h32v8h32v8h8v8h16v8h8v8h8v8h16v8h8v8h8v8h8v8h8v8h8v8h8v8h8v8h8v16h8v16h8v16h8v16h8v16h8v32h-8v8h24v8h-8v384h-8v16h8v-8h8v32h-8v40h-8v112h-16v16h8v32h-8v32h-8v16h-8v16h-8v16h-8v16h-8v16h-8v8h-8v8h-8v8 h-8v8h-8v8h-8v8h-24v24h-8v8h-16v8h-16v8h-8v8h-32v8h-32v8h-48v8h-576v-16h-8v-48h-8v-8h16v-8h-16v-672h-8v-16h8v-24h-8v16h-8v-24h16v-224h8v-64h8v-32h608zM0 0v8h8v8h8v32h8v48h8v992h-8v48h-8v32h-8v8h-8v8h496v-8h144v-8h80v-8h32v-8h32v-8h16v-8h16v-8h16v-8h16v-8 h8v-8h8v-8h8v-8h8v-8h8v-8h8v-8h8v-8h8v-16h8v-8h8v-8h8v-16h8v-16h8v-16h8v-16h8v-16h8v-32h8v-640h-8v-32h-8v-16h-8v-16h-8v-16h-8v-16h-8v-16h-8v-8h-8v-8h-8v-16h-8v-8h-8v-8h-8v-8h-8v-8h-8v-8h-8v-8h-8v-8h-8v-8h-16v-8h-16v-8h-16v-8h-16v-8h-32v-8h-48v-8h-64v-8 h-112v-8h-528z" />
<glyph unicode="E" horiz-adv-x="1072" d="M584 40v8h8v-8h-8zM592 0v8h-144v8h-96v8h-80v8h-64v8h-48v8h-16v-8h-8v8h-8v8h-16v8h-16v8h-8v8h-8v8h-8v8h-8v16h-8v16h-8v16h-8v16h-8v32h-8v48h-8v64h-8v304h8v8h-8v264h8v64h8v48h8v32h8v16h8v16h8v16h8v16h8v8h8v8h8v8h8v8h16v8h16v8h32v8h48v8h64v8h80v8h96v8h144 v8h384v-64h-8v8h-8v8h-16v8h-32v8h-256v-8h-8v8h-152v-8h-112v-8h-128v-8h-8v8h-24v-8h-32v-8h-32v-8h-32v-8h-8v-8h-8v-8h-8v-8h-8v-8h-8v-16h-8v-16h-8v-16h-8v-32h-8v-32h-8v-32h-8v-64h456v8h16v-8h16v8h8v8h8v-8h16v8h16v8h8v8h8v-96h-8v8h-8v8h-16v8h-32v8h-64v-8h-8 v8h-416v-64h-8v-8h16v-8h-8v-480h8v-48h8v-32h8v-16h8v-16h8v-16h8v-16h8v-8h8v-8h8v-8h8v-8h8v-8h16v-8h16v-8h32v-8h48v-8h64v-8h80v-8h104v8h8v-16h432v8h-8v8h16v-8h24v8h16v8h8v8h8v-64h-400z" />
<glyph unicode="F" horiz-adv-x="1088" d="M56 16v8h-8v-8h8zM64 592v16h-8v-16h8zM8 0v8h8v8h8v32h8v48h8v784h8v64h8v48h8v32h8v16h8v16h8v16h8v16h8v8h8v8h8v8h8v8h16v8h16v8h32v8h48v8h64v8h80v8h96v8h144v8h272v-8h16v8h64v-64h-8v8h-8v8h-16v8h-32v8h-384v-8h-112v-8h-160v-8h-32v-8h-32v-8h-32v-8h-8v-8h-8 v-8h-8v-8h-8v-8h-8v-16h-8v-16h-8v-16h-8v-32h-8v-32h-8v-32h-8v-64h24v-8h16v8h448v8h32v8h16v8h8v8h8v-96h-8v8h-8v8h-16v8h-32v8h-488v-736h8v-48h8v-32h8v-8h8v-8h-96z" />
<glyph unicode="G" horiz-adv-x="1136" d="M24 368v8h-8v-8h8zM40 440v24h8v-24h-8zM728 1168v8h-8v-8h8zM496 0v8h-144v8h-80v8h-32v8h-32v8h-16v8h-16v8h-16v8h-16v8h-8v8h-24v16h-16v16h-8v16h-8v16h-8v8h-8v8h-8v16h-8v16h-8v16h-8v16h-8v16h-8v32h-8v640h8v32h8v16h8v16h8v16h8v16h8v16h8v8h8v8h8v16h8v8h8v8 h8v8h8v8h8v8h8v8h8v8h8v8h16v8h16v8h16v8h16v8h32v8h48v8h64v8h112v8h512v-64h-8v8h-8v8h-16v8h-32v8h-608v-8h-32v-8h-32v-8h-32v-8h-8v-8h-16v-8h-8v-8h-8v-8h-16v-8h-8v-8h-8v-8h-8v-8h-8v-8h-8v-8h-8v-8h-8v-8h-8v-16h-8v-16h-8v-16h-8v-16h-8v-16h-8v-32h-8v-448h-8 v-32h16v-112h8v-48h8v-32h8v-16h8v-16h8v-16h8v-16h8v-16h8v-8h8v-8h8v-8h8v-8h8v-8h8v-8h8v-8h8v-8h8v-8h8v-8h16v-8h16v-8h8v-8h32v-8h32v-8h48v-8h8v16h8v-16h480v-8h16v8h80v8h16v8h8v8h8v176h16v8h-16v16h-8v48h-8v32h-8v8h-8v8h32v-8h16v8h48v-8h-8v-8h-8v-32h-8v-48 h-8v-240h-16v-8h8v-8h-488z" />
<glyph unicode="H" horiz-adv-x="1280" d="M64 32v16h-8v-16h8zM56 816v8h8v8h-16v-16h8zM0 0v8h8v8h8v32h8v48h8v992h-8v48h-8v32h-8v8h-8v8h16v-8h8v-8h8v-8h16v8h-16v16h72v-8h-8v-8h-8v-32h-8v-48h-8v-224h328v-8h16v8h16v-8h80v8h592v224h-8v48h-16v8h8v24h-8v8h-8v8h96v-8h-8v-8h-8v-32h-8v-48h-8v-992h8v-48 h8v-32h8v-8h8v-8h-96v8h8v8h8v32h8v48h8v304h-16v16h8v8h8v408h-1024v16h-8v-480h-8v-16h8v-256h8v-48h8v-32h8v-8h8v-8h-40v8h-8v16h-8v-24h-48z" />
<glyph unicode="I" horiz-adv-x="224" d="M48 704v16h-8v-16h8zM0 0v8h8v8h8v32h8v48h8v992h-8v48h-8v32h-8v8h-8v8h96v-8h-8v-8h-8v-32h-8v-48h-8v-992h8v-48h8v-32h8v-8h8v-8h-48v16h-8v-16h-40z" />
<glyph unicode="J" horiz-adv-x="336" d="M-336 -256v96h8v-8h8v-8h16v-8h32v-8h256v8h32v8h32v8h32v8h8v8h8v8h8v8h8v8h8v16h8v16h8v16h8v32h8v32h8v208h8v16h-8v880h-8v48h-8v32h-8v8h-8v8h48v-24h8v16h8v8h32v-8h-8v-8h-8v-32h-8v-48h-8v-1088h-8v-48h-8v-32h-8v-16h-8v-16h-8v-16h-8v-16h-8v-8h-8v-8h-8v-8h-8 v-8h-16v-8h-16v-8h-32v-8h-48v-8h-64v-8h-80v-8h-128v-8h-32v-8h-16v-8h-8v-8h-8z" />
<glyph unicode="K" horiz-adv-x="912" d="M648 760v8h-8v-8h8zM56 968v8h-8v-8h8zM0 0v8h8v8h8v32h8v32h8v8h-8v-8h-8v16h16v992h-8v48h-8v32h-8v8h-8v8h96v-8h-8v-8h-8v-32h-8v-48h-8v-464h208v-8h8v8h8v-16h8v8h8v8h272v8h8v8h8v16h8v16h8v32h8v32h8v32h8v32h8v32h8v32h8v32h8v32h8v32h8v32h8v32h8v32h8v48h8v72 h-8v8h80v-8h-8v-8h-8v-8h-8v-8h-8v-16h-8v-32h-8v-32h-8v-32h-8v-32h-8v-32h-8v-32h-8v-32h-8v-32h-8v-32h-8v-32h-8v-32h-8v-32h-8v-32h-8v-32h-8v-32h-8v-16h-8v-16h-8v-32h8v-32h8v-32h8v-32h8v-32h8v-32h8v-32h8v-32h8v-32h8v-32h8v-32h8v-32h8v-32h8v-32h8v-32h8v-32h8 v-32h8v-32h8v-16h8v-8h8v-8h8v-8h8v-8h-80v8h8v72h-8v48h-8v32h-8v32h-8v32h-8v32h-8v32h-8v32h-8v32h-8v32h-8v32h-8v32h-8v32h-8v64h-8v-32h-8v64h-8v8h-8v8h-512v-64h-8v-16h8v-416h8v-48h8v-32h8v-8h8v-8h-96z" />
<glyph unicode="L" horiz-adv-x="1248" d="M0 0v8h8v8h8v32h8v48h8v584h8v24h-8v384h-8v48h-8v32h-8v8h-8v8h96v-8h-8v-8h-8v-32h-8v-80h-8v-880h-8v-16h8v-48h8v-64h8v-8h8v-8h48v-16h8v16h16v-8h32v8h912v8h16v-24h8v32h24v8h8v8h8v-64h-1168z" />
<glyph unicode="M" horiz-adv-x="1152" d="M456 416v16h8v-16h-8zM0 0v8h8v8h8v8h8v8h8v16h8v32h8v32h8v32h8v32h8v32h8v32h8v32h8v32h8v32h8v32h8v32h8v32h8v32h8v32h8v32h8v32h8v32h8v32h8v32h8v32h8v32h8v32h8v32h8v32h8v32h8v32h8v32h8v32h8v32h8v32h8v32h8v32h8v32h8v32h8v32h8v16h16v-16h8v-32h8v-32h8v-32h8 v-32h8v-32h8v-32h8v-32h8v-32h8v-32h8v-32h8v-32h8v-32h8v-32h8v-32h8v-32h8v-32h8v-32h8v-32h8v-32h8v-32h8v-32h8v-32h16v32h8v32h8v32h8v32h8v32h8v32h8v32h8v32h8v32h8v32h8v32h8v32h8v32h8v32h8v32h8v32h8v32h8v32h8v32h8v32h8v32h8v32h8v16h16v-16h8v-32h8v-32h8v-32 h8v-32h8v-32h8v-32h8v-32h8v-32h8v-32h8v-32h8v-32h8v-32h8v-32h8v-32h8v-32h8v-32h8v-32h8v-32h8v-32h8v-32h8v-32h8v-32h8v-32h8v-32h8v-32h8v-32h8v-32h8v-32h8v-32h8v-32h8v-32h8v-32h8v-32h8v-32h8v-32h8v-16h8v-8h8v-8h8v-8h8v-8h-96v8h8v24h8v64h-8v32h-8v32h-8v32 h-8v32h-8v32h-8v32h-8v32h-8v32h-8v32h-8v32h-8v32h-8v32h-8v32h-8v32h-8v32h-8v32h-8v32h-8v32h-8v32h-8v32h-8v32h-8v32h-8v32h-8v32h-8v32h-8v32h-8v32h-8v32h-8v32h-8v32h-8v32h-8v-32h-8v-32h-8v-32h-8v-32h-8v-32h-8v-32h-8v-32h-8v-32h-8v-32h-8v-32h-8v-32h-8v-32 h-8v-32h-8v-32h-8v-32h-8v-32h-8v-32h-8v-32h-8v-32h-8v-32h-8v-32h-8v-32h-8v-32h-16v16h-8v32h-8v16h-8v32h-8v32h-8v32h-8v32h-8v32h-8v32h-8v32h-8v32h-8v32h-8v32h-8v32h-8v32h-8v32h-8v16h-16v80h-8v32h-8v32h-8v32h-8v32h-8v32h-8v-32h-8v-32h-8v-32h-8v-32h-8v-32 h-8v-32h-8v-32h-8v-32h-8v-32h-8v-32h-8v-32h-8v-32h-8v-32h-8v-32h-8v-32h-8v-32h-8v-32h-8v-32h-8v-32h-8v-32h-8v-32h-8v-32h-8v-32h-8v-32h-8v-32h-8v-32h8v-48h-8v32h-8v-16h-8v-32h-8v-32h-8v-32h-8v-48h-8v-72h8v-8h-80z" />
<glyph unicode="N" horiz-adv-x="1008" d="M0 0v8h8v8h8v32h8v48h8v944h-8v96h-8v32h-8v8h-8v8h48v-8h8v-8h8v-8h8v-8h8v-8h8v-8h8v-8h8v-8h8v-8h8v-8h8v-8h8v-8h8v-8h8v-8h8v-8h8v-8h8v-8h8v-8h8v-8h8v-8h8v-8h8v-8h8v-8h8v-8h8v-8h8v-8h8v-8h8v-8h8v-8h8v-8h8v-8h8v-8h8v-8h8v-8h8v-8h8v-8h8v-8h8v-8h8v-8h8v-8h8 v-8h8v-8h8v-8h8v-8h8v-8h8v-8h8v-8h8v-8h8v-8h8v-8h8v-8h8v-8h8v-8h8v-8h8v-8h8v-8h8v-8h8v-8h8v-8h8v-8h8v-8h8v-8h8v-8h8v-8h8v-8h8v-8h8v-8h8v-8h8v-8h8v-8h8v-8h8v-8h8v-8h8v-8h8v-8h8v-8h8v-8h8v-8h8v-8h8v-8h8v-8h8v-8h8v-8h8v-8h8v-8h8v-8h8v-8h8v-8h8v-8h8v-8h8v-8 h8v-8h8v-8h8v-8h24v16h-16v16h8v-8h8v8h8v-16h8v640h-8v48h-8v32h-8v8h-8v8h96v-8h-8v-8h-8v-32h-8v-48h-8v-992h8v-48h8v-32h8v-8h8v-8h-96v8h8v8h8v32h8v48h8v16h-8v16h8v232h-8v8h-8v8h-8v8h-8v8h-8v8h-8v8h-8v8h-8v8h-8v8h-8v8h-8v8h-8v8h-8v8h-8v8h-8v8h-8v8h-8v8h-8v8 h-8v8h-8v8h-8v8h-8v8h-8v8h-8v8h-8v8h-8v8h-8v8h-8v8h-8v8h-8v8h-8v8h-8v8h-8v8h-8v8h-8v8h-8v8h-8v8h-8v8h-8v8h-8v8h-8v8h-8v8h-8v8h-8v8h-8v8h-8v8h-8v8h-8v8h-8v8h-8v8h-8v8h-8v8h-8v8h-8v8h-8v8h-8v8h-8v8h-8v8h-8v8h-8v8h-8v8h-8v8h-8v8h-8v8h-8v8h-8v8h-8v8h-8v8h-8 v8h-8v8h-8v8h-8v8h-8v8h-8v8h-8v8h-8v8h-8v8h-8v8h-8v8h-8v8h-8v8h-8v8h-8v8h-8v8h-8v8h-8v8h-8v8h-8v8h-8v8h-8v8h-8v8h-8v8h-8v8h-8v8h-8v-16h8v-8h-16v-640h-8v-8h-8v-8h16v-336h8v-48h8v-32h8v-8h8v-8h-96z" />
<glyph unicode="O" horiz-adv-x="1280" d="M864 32v8h32v8h32v8h32v8h8v8h16v8h8v8h8v8h16v8h8v8h8v8h8v8h8v8h8v8h8v8h8v8h8v16h8v16h8v16h8v16h8v16h8v32h8v224h8v48h-8v208h-8v112h-8v48h-8v32h-8v16h-8v16h-8v16h-8v16h-8v16h-8v8h-8v8h-8v8h-8v8h-8v8h-8v8h-8v8h-8v8h-8v8h-8v8h-16v8h-16v8h-8v8h-32v8h-32v8 h-48v8h-384v16h-16v-16h-128v-8h-32v-8h-32v-8h-32v-8h-8v-8h-16v-8h-8v-8h-8v-8h-16v-8h-8v-8h-8v-8h-8v-8h-8v-8h-8v-8h-8v-8h-8v-8h-8v-16h-8v-16h-8v-16h-8v-16h-8v-16h-8v-32h-8v-208h-8v-176h8v-96h8v-112h8v-48h8v-32h8v-16h8v-16h8v-16h8v-16h8v-16h8v-8h8v-8h-8 v-16h16v-16h16v8h8v-8h8v-8h8v-8h8v-8h8v-8h16v-8h16v-8h8v-8h32v-8h32v-8h48v-8h528zM496 0v8h-144v8h-80v8h-32v8h-32v8h-16v8h-16v8h-16v8h-16v8h-8v8h-8v8h-8v8h-8v8h-8v8h-8v8h-8v8h-8v16h-8v8h-8v8h-8v16h-8v16h-8v16h-8v16h-8v16h-8v32h-8v240h-8v16h8v384h8v32h8v16 h8v16h8v16h8v16h8v16h8v8h8v8h8v16h8v8h8v8h8v8h8v8h8v8h8v8h8v8h8v8h16v8h16v8h16v8h16v8h32v8h48v8h64v8h112v8h208v-8h144v-8h80v-8h32v-8h32v-8h16v-8h16v-8h16v-8h16v-8h8v-8h8v-8h8v-8h8v-8h8v-8h8v-8h8v-8h8v-16h8v-8h8v-8h8v-16h8v-16h8v-16h8v-16h8v-16h8v-32h16 v-16h-8v-624h-8v-32h-8v-16h-8v-16h-8v-16h-8v-16h-8v-16h-8v-8h-8v-8h-8v-16h-8v-8h-8v-8h-8v-8h-8v-8h-8v-8h-8v-8h-8v-8h-8v-8h-16v-8h-16v-8h-16v-8h-16v-8h-32v-8h-48v-8h-64v-8h-112v-8h-208z" />
<glyph unicode="P" horiz-adv-x="1072" d="M704 384v8h32v8h32v8h32v8h8v8h16v8h8v8h8v8h16v8h8v8h8v8h8v8h8v8h8v8h8v8h8v8h8v16h8v16h8v16h8v16h8v16h8v32h8v16h-8v16h16v112h-8v80h-8v32h-8v48h-8v32h-8v16h-8v16h-8v16h-8v16h-8v16h-8v8h-8v8h-8v8h-8v8h-8v8h-8v8h-8v8h-8v8h-8v8h-8v8h-16v8h-16v8h-8v8h-32v8 h-672v-16h-8v-48h-8v-704h384v16h16v-16h240zM0 0v8h8v8h8v32h8v48h8v992h-8v48h-8v32h-8v8h-8v8h824v-8h8v8h16v-8h-8v-8h-8v-8h-8v-8h8v-8h16v-8h16v-8h8v-8h8v-8h8v-8h8v-8h8v-8h8v-8h8v-8h8v-16h8v-8h8v-8h8v-16h8v-16h8v-16h8v-16h8v-16h8v-32h8v-80h8v-176h-8v-48h-8 v-32h-8v-16h-8v-16h-8v-16h-8v-16h-8v-16h-8v-8h-8v-8h-8v-16h-8v-8h-8v-8h-8v-8h-8v-8h-8v-8h-8v-8h-8v-8h-8v-8h-16v-8h-16v-8h-16v-8h-16v-8h-32v-8h-48v-8h-64v-8h-112v-8h-480v-208h16v-16h-16v-32h8v-48h8v-32h8v-8h8v-8h-96z" />
<glyph unicode="Q" horiz-adv-x="1248" d="M480 -104v8h8v-8h-8zM16 360v8h-8v-8h8zM1152 552v8h-8v-8h8zM864 32v8h32v8h32v8h32v8h8v8h16v8h8v8h8v8h16v8h8v8h8v8h8v8h8v8h8v8h8v8h8v8h8v16h8v16h8v16h8v16h8v16h8v32h8v480h-8v112h-8v48h-8v32h-8v16h-8v16h-8v16h-8v16h-8v16h-8v8h-8v8h-8v8h-8v8h-8v8h-8v8h-8 v8h-8v8h-8v8h-8v8h-16v8h-16v8h-8v8h-32v8h-32v8h-48v8h-528v-8h-32v-8h-32v-8h-32v-8h-8v-8h-16v-8h-8v-8h-8v-8h-16v-8h-8v-8h-8v-8h-8v-8h-8v-8h-8v-8h-8v-8h-8v-8h-8v-16h-8v-16h-8v-16h-8v-16h-8v-16h-8v-32h-8v-480h8v-112h8v-48h8v-32h8v-16h8v-16h8v-16h8v-16h8v-16 h8v-8h8v-8h8v-8h8v-8h8v-8h8v-8h8v-8h8v-8h8v-8h8v-8h16v-8h16v-8h8v-8h32v24h16v-32h16v-8h48v-8h528zM920 -256v8h-8v8h-16v8h-32v8h-128v8h-80v8h-64v8h-48v8h-32v8h-16v8h-16v8h-8v8h-8v8h-8v8h-8v16h-8v16h-8v16h-8v16h-8v32h-8v48h-8v8h-48v8h-80v8h-32v8h-32v8h-16v8 h-16v8h-16v8h-16v8h-8v8h-8v8h-8v8h-8v8h-8v8h-8v8h-8v8h-8v16h-8v8h-8v8h-8v16h-8v16h-8v16h-8v16h-8v16h-8v32h-8v80h-8v80h8v480h8v32h8v16h8v16h8v16h8v16h8v16h8v8h8v8h8v16h8v8h8v8h8v8h8v8h8v8h8v8h8v8h8v8h16v8h16v8h16v8h16v8h32v8h48v8h64v8h112v8h208v-8h144v-8 h80v-8h32v-8h32v-8h16v-8h16v-8h16v-8h16v-8h8v-8h8v-8h8v-8h8v-8h8v-8h8v-8h8v-8h8v-16h8v-8h8v-8h8v-16h8v-16h8v-16h8v-16h8v-16h8v-32h8v-640h-8v-32h-8v-16h-8v-16h-8v-16h-8v-16h-8v-16h-8v-8h-8v-8h-8v-16h-8v-8h-8v-8h-8v-8h-8v-8h-8v-8h-8v-8h-8v-8h-8v-8h-16v-8 h-16v-8h-16v-8h-16v-8h-32v-8h-48v-8h-64v-8h-112v-8h-208v8h-64v-24h8v-32h8v-32h8v-16h8v-16h8v-16h8v16h16v-40h8v-8h8v-8h32v-8h32v-8h32v-8h256v8h32v8h16v8h8v8h8v-96h-8z" />
<glyph unicode="R" horiz-adv-x="976" d="M720 56v8h-8v-8h8zM304 616v8h272v8h32v8h32v8h32v8h8v8h16v8h8v8h8v8h8v24h-8v8h48v8h8v8h8v8h8v8h8v16h8v16h8v16h8v16h8v16h8v48h-8v48h-8v32h-8v16h-8v16h-8v16h-8v16h-8v16h-8v8h-8v8h-8v8h-8v8h-8v8h-8v8h-8v8h-8v8h-8v8h-8v8h-16v8h-16v8h-8v8h-32v8h-264v8h-24 v-8h-256v-48h-8v-16h-8v-424h-8v-8h-8v-8h16v-24h224v-8h16zM0 0v8h8v8h8v16h-8v8h-8v8h16v16h8v40h-8v8h16v976h-8v48h-8v32h-8v8h-8v8h608v-8h32v-8h32v-8h16v-8h16v-8h16v-8h16v-8h8v-8h8v-8h8v-8h8v-8h8v-8h8v-8h8v-8h8v-16h8v-8h8v-8h8v-16h8v-16h8v-16h8v-16h8v-16h8 v-32h8v-80h-8v-16h-8v-16h-8v-16h-8v-16h-8v-16h-8v-16h-8v-8h-8v-8h-8v-16h-8v-8h-8v-8h-8v-8h-8v-8h-8v-8h-8v-8h-8v-8h-8v-8h-16v-8h-16v-8h-16v-8h-16v-8h-32v-8h-48v-8h16v-16h8v-32h8v-32h8v-32h8v-32h8v-32h8v-32h8v-32h8v-32h8v-32h8v-32h8v-32h8v-32h8v-32h8v-32h8 v-32h8v-32h8v-32h8v-16h8v-8h8v-8h8v-8h8v-8h-80v8h8v24h8v16h-8v-8h-8v88h-8v32h-8v32h-8v32h-8v32h-8v32h-8v32h-8v32h-8v32h-8v32h-8v32h-8v32h-8v32h-8v32h-8v32h-8v8h-8v8h-16v-16h-8v8h-8v8h-480v-496h8v-48h8v-32h8v-8h8v-8h-96z" />
<glyph unicode="S" horiz-adv-x="1216" d="M0 0v64h8v-8h8v-8h16v-8h32v-8h320v8h32v8h32v8h32v8h8v8h8v40h16v-16h8v16h8v16h8v16h8v32h8v32h8v752h8v48h8v32h8v16h8v16h8v16h8v16h8v8h8v8h8v8h8v8h16v8h16v8h32v8h48v8h64v8h96v-8h32v16h200v-8h8v-56h-8v8h-8v8h-16v8h-32v8h-320v-8h-32v-8h-32v-8h-32v-8h-8v-8 h-8v-8h-8v-8h-8v-8h-8v-16h-8v-16h-8v-16h-8v-32h-8v-32h-8v-752h-8v-48h-8v-32h-8v-16h-8v-16h-8v-16h-8v-16h-8v-8h-8v-8h-8v-8h-8v-8h-16v-8h-16v-8h-32v-8h-48v-8h-64v-8h-112v-8h-224z" />
<glyph unicode="T" horiz-adv-x="1280" d="M544 0v8h8v8h8v32h8v48h-8v16h16v688h8v208h-8v16h8v16h-8v48h-8v48h-8v8h-16v8h-480v-8h-32v-8h-16v-32h-8v8h-8v72h1168v-64h-8v8h-8v8h-16v8h-32v8h-464v-8h-16v-8h-8v-48h-8v-992h8v-48h8v-32h8v-8h8v-8h-96z" />
<glyph unicode="U" horiz-adv-x="1072" d="M400 0v8h-112v8h-64v8h-48v8h-32v8h-16v8h-16v8h-8v8h-8v8h-8v8h-8v16h-8v16h-8v16h-8v16h-8v-16h-16v64h8v32h-8v912h-8v32h-8v8h-8v8h96v-8h-8v-8h-8v-32h-8v-48h-8v-912h8v-32h8v-16h8v-16h8v-16h8v-8h8v-8h8v-8h8v-8h8v-8h32v-8h32v-8h32v-8h480v8h32v8h32v8h32v8h8 v8h8v8h8v8h8v8h8v16h8v16h8v16h8v32h8v48h-8v32h16v368h-8v32h8v48h8v32h-8v352h-8v48h-8v32h-8v8h-8v8h96v-8h-8v-8h-8v-32h-8v-48h-8v-864h-8v-48h-8v-32h-8v-16h-8v-16h-8v-16h-8v-16h-8v-8h-8v-8h-8v-8h-8v-8h-16v-8h-16v-8h-32v-8h-48v-8h-64v-8h-112v-8h-160z" />
<glyph unicode="V" d="M272 0v8h16v8h8v16h8v48h-8v32h-8v32h-8v32h-8v32h-8v32h-8v32h-8v32h-8v32h-8v32h-8v32h-16v16h8v16h-8v32h-16v16h8v16h-8v32h-8v32h-8v16h-16v64h-16v16h8v32h-8v32h-8v32h-8v32h-8v32h-8v32h-8v16h-8v16h-16v16h16v16h-16v16h8v16h-8v32h-8v32h-8v32h-8v32h-8v32h-8 v32h-8v16h-8v8h-8v8h-8v8h-8v8h96v-8h-8v-24h-8v-64h8v-16h24v-16h-16v-32h8v-32h8v-32h8v-32h8v-32h8v-32h8v-32h8v-32h8v-32h8v-32h8v-32h8v-32h8v-32h8v-32h8v-32h8v-32h8v-32h8v-32h8v-32h8v-32h8v-32h8v-32h8v-32h8v-32h8v-32h8v-32h8v-32h8v-32h8v-32h8v-32h8v-16h8 v-32h8v-16h472v16h8v16h8v32h8v32h8v32h8v32h8v32h8v32h8v32h8v32h8v32h8v32h8v32h8v32h8v32h8v32h8v16h-8v16h16v48h8v16h8v32h8v32h8v32h8v32h8v32h8v32h8v32h8v32h8v32h8v32h8v48h8v16h-8v32h24v32h8v48h8v16h-8v16h8v40h-8v8h80v-8h-8v-8h-8v-8h-8v-8h-8v-16h-8v-32h-8 v-32h-8v-32h-8v-32h-8v-32h-8v-32h-8v-32h-8v-32h-8v-32h-8v-32h-8v-32h-8v-32h-8v-32h-8v-32h-8v-32h-8v-32h-8v-32h-8v-32h-8v-32h-8v-32h-8v-32h-8v-32h-8v-32h-8v-32h-8v-32h-8v-32h-8v-32h-8v-32h-8v-32h-8v-32h-8v-32h-8v-32h-8v-32h-8v-48h8v-16h8v-8h16v-8h-624z " />
<glyph unicode="W" horiz-adv-x="1152" d="M320 0v16h-8v32h-8v32h-8v32h-8v32h-8v32h-8v32h-8v32h-8v32h-8v32h-8v32h-8v32h-8v32h-8v32h-8v32h-8v32h-8v32h-8v32h-8v32h-8v32h-8v-16h-16v8h8v8h-8v32h8v16h-16v16h8v16h-16v8h8v40h-8v32h-8v32h-8v32h-8v32h-8v32h-8v32h-8v32h-8v32h-8v32h-8v32h-8v32h-8v32h-8 v16h-8v8h-8v8h-8v8h-8v8h96v-8h-8v-24h-8v-64h8v-32h8v-32h8v-32h8v-32h8v-32h8v-32h8v-32h8v-32h8v-32h8v-32h8v-32h8v-32h8v-32h8v-32h8v-32h8v-32h8v-32h8v-32h8v-32h8v-32h8v-32h8v-32h8v-32h8v-32h8v-32h8v-32h8v-32h8v-32h8v-32h8v-32h8v-32h8v32h8v32h8v32h8v32h8v32 h8v32h8v32h8v32h8v32h8v32h8v32h8v32h8v32h8v16h-8v48h24v32h8v32h8v32h8v32h8v32h8v32h8v32h8v32h32v-8h8v-8h-16v-32h8v-16h8v-32h8v-32h8v-32h8v-32h8v-32h8v-32h8v-32h8v-32h8v-32h8v-32h8v-32h8v-32h8v-32h8v-32h8v-32h8v-32h8v-32h8v-32h8v-32h8v-32h8v-32h8v32h8v32 h8v32h8v32h8v32h8v32h8v32h8v32h8v32h8v32h8v32h8v32h8v32h8v32h8v32h8v32h8v32h8v32h8v32h8v32h8v32h8v32h8v32h8v32h8v32h8v32h8v32h8v32h8v32h8v32h8v80h8v16h-8v16h8v8h-8v8h80v-8h-8v-8h-8v-8h-8v-8h-8v-16h-8v-32h-8v-32h-8v-32h-8v-32h-8v-32h-8v-32h-8v-32h-8v-32 h-8v-32h-8v-32h-8v-32h-8v-32h-8v-32h-8v-32h-8v-32h-8v-32h-8v-32h-8v-32h-8v-32h-8v-32h-8v-32h-8v-32h-8v-32h-8v-32h-8v-32h-8v-32h-8v-32h-8v-32h-8v-32h-8v-32h-8v-32h-8v-32h-8v-32h-8v-32h-8v-32h-8v-16h-16v16h-8v32h-8v32h-8v32h-8v32h-8v32h-8v32h-8v32h-8v32h-8 v32h-8v32h-8v32h-8v32h-8v32h-8v32h-8v32h-8v32h-8v32h-8v32h-8v32h-8v32h-8v32h-8v16h-16v-16h-8v-32h-8v-32h-8v-16h8v-16h-16v-32h-8v-32h-8v-32h-8v-32h-8v-32h-8v-32h-8v-32h-8v-32h-8v-32h-8v-32h-8v-32h-8v-32h-8v-32h-8v-32h-8v-32h-8v-32h-8v-32h-8v-32h-8v-16h-16 z" />
<glyph unicode="X" horiz-adv-x="1392" d="M0 0v8h24v8h16v8h16v8h16v8h8v8h16v8h8v8h8v8h8v8h8v8h8v8h8v8h8v8h8v8h8v8h8v8h8v8h8v8h8v8h8v8h8v8h8v8h8v8h8v8h8v8h8v8h8v8h8v8h8v8h8v8h8v8h8v8h8v8h8v8h8v8h8v8h8v8h8v8h8v8h8v8h8v8h8v8h8v8h8v8h8v8h8v8h8v8h8v8h8v8h8v8h8v8h8v8h8v8h8v16h16v8h8v8h8v8h8v8h8v8h8 v8h8v8h8v8h8v8h8v8h8v8h8v8h8v8h8v8h8v8h8v8h8v8h8v8h-8v8h-8v8h-8v8h-8v8h-8v8h-8v8h-8v8h-8v8h-8v8h-8v8h-8v8h-8v8h-8v8h-8v8h-8v8h-8v8h-8v8h-8v8h-8v8h-8v8h-8v8h-8v8h-8v8h-8v8h-8v8h-8v8h-8v8h-8v8h-8v8h-8v8h-8v8h-8v8h-8v8h-8v8h-8v8h-8v8h-8v8h-8v8h-8v8h-8v8h-8 v8h-8v8h-8v8h-8v8h-8v8h-8v8h-8v8h-8v8h-8v8h-8v8h-8v8h-8v8h-8v8h-8v8h-8v8h-8v8h-8v8h-8v8h-8v8h-8v8h-8v8h-8v8h-8v8h-8v8h-8v8h-8v8h-8v8h-8v8h-16v8h-8v8h-16v8h-16v8h-16v8h-16v8h96v-8h-8v-8h8v-8h8v-8h8v-8h8v-8h8v-8h8v-8h8v-8h8v-8h8v-8h8v-8h8v-8h8v-8h8v-8h8v-8 h8v-8h8v-8h8v-8h8v-8h8v-8h8v-8h8v-8h8v-8h8v-8h8v-8h8v-8h8v-8h8v-8h8v-8h8v-8h8v-8h8v-8h8v-8h8v-8h8v-8h8v-8h8v-8h8v-8h8v-8h8v-8h8v-8h8v-8h8v-8h8v-8h8v-8h8v-8h8v-8h8v-8h8v-8h8v-8h8v-8h8v-8h8v-8h8v-8h8v-8h8v-8h8v-8h8v-8h8v-8h8v-8h8v-8h8v-8h8v-8h8v-16h16v-8h8 v-8h8v-8h8v-8h8v-8h8v-8h8v8h8v8h8v8h8v8h8v16h16v8h8v8h8v8h8v8h8v8h8v8h8v8h8v8h8v8h8v8h8v8h8v8h8v8h8v8h8v8h8v8h8v8h8v8h8v8h8v8h8v8h8v8h8v8h8v8h8v8h8v8h8v8h8v8h8v8h8v8h8v8h8v8h8v8h8v8h8v8h8v8h8v8h8v8h8v8h8v8h8v8h8v8h8v8h8v8h8v8h8v8h8v8h8v8h8v8h8v8h8v8h8v8 h8v8h8v8h8v8h8v8h8v16h16v8h8v8h8v8h8v8h8v8h8v16h-8v8h96v-8h-24v-8h-8v-8h-16v-8h-16v-8h-8v-8h-16v-8h-8v-8h-8v-8h-8v-8h-8v-8h-8v-8h-8v-8h-8v-8h-8v-8h-8v-8h-8v-8h-8v-8h-8v-8h-8v-8h-8v-8h-8v-8h-8v-8h-8v-8h-8v-8h-8v-8h-8v-8h-8v-8h-8v-8h-8v-8h-8v-8h-8v-8h-8v-8 h-8v-8h-8v-8h-8v-8h-8v-8h-8v-8h-8v-8h-8v-8h-8v-8h-8v-8h-8v-8h-8v-8h-8v-8h-8v-8h-8v-8h-8v-8h-8v-8h-8v-8h-8v-8h-8v-8h-8v-8h-8v-8h-8v-8h-8v-8h-8v-8h-8v-8h-8v-8h-8v-8h-8v-8h-8v-8h-8v-8h-8v-8h-8v-8h-8v-8h-8v-8h-8v-8h-8v-8h-8v-8h-8v-8h-8v-8h-8v-8h-8v-16h8v-8h8 v-8h8v-8h8v-8h8v-8h8v-8h8v-8h8v-8h8v-8h8v-8h8v-8h8v-8h8v-8h8v-8h8v-8h8v-8h8v-8h8v-8h8v-8h8v-8h8v-8h8v-8h8v-8h8v-8h8v-8h8v-8h8v-8h8v-8h8v-8h8v-8h8v-8h8v-8h8v-8h8v-8h8v-8h8v-8h8v-8h8v-8h8v-8h8v-8h8v-8h8v-8h8v-8h8v-8h8v-8h8v-8h8v-8h8v-8h8v-8h8v-8h8v-8h8v-8 h8v-8h8v-8h8v-8h8v-8h8v-8h8v-8h8v-8h8v-8h8v-8h8v-8h8v-8h8v-8h8v-8h8v-8h8v-8h16v-8h8v-8h16v-8h16v-8h8v-8h24v-8h-64v8h-16v-8h-48v8h8v8h8v16h-16v8h-8v8h-8v16h-8v16h-8v8h-8v8h-8v8h-8v8h-8v8h-8v8h-8v8h-8v8h-8v8h-8v8h-8v8h-8v8h-8v8h-8v8h-8v8h-8v8h-8v8h-8v8h-8 v8h-8v8h-8v8h-8v8h-8v8h-8v8h-8v8h-8v8h-8v8h-8v8h-8v8h-8v8h-8v8h-8v8h-8v8h-8v8h-8v8h-8v8h-8v8h-8v8h-8v8h-8v8h-8v8h-8v8h-8v8h-8v8h-8v8h-8v8h-8v8h-8v8h-8v8h-8v8h-8v8h-8v8h-8v8h-8v8h-8v8h-8v8h-8v8h-8v8h-8v8h-8v8h-8v8h-16v-8h-8v-8h-8v-8h-8v-8h-8v-8h-8v-8h-8 v-8h-8v-8h-8v-8h-8v-8h-8v-8h-8v-8h-8v-8h-8v-8h-8v-8h-8v-8h-8v-8h-8v-8h-8v-8h-8v-8h-8v-8h-8v-8h-8v-8h-8v-8h-8v-8h-8v-8h-8v-8h-8v-8h-8v-8h-8v-8h-8v-8h-8v-8h-8v-8h-8v-8h-8v-8h-8v-8h-8v-8h-8v-8h-8v-8h-8v-8h-8v-8h-8v-8h-8v-8h-8v-8h-8v-8h-8v-8h-8v-8h-8v-8h-8 v-8h-8v-8h-8v-8h-8v-8h-8v-8h-8v-8h-8v-8h-8v-8h-8v-8h-8v-8h-8v-8h-8v-8h-8v-8h-8v-8h-8v-8h-8v-8h-8v-8h-8v-8h-8v-8h-8v-8h-8v-8h32v-16h-128z" />
<glyph unicode="Y" horiz-adv-x="928" d="M744 1160v16h-8v-16h8zM360 0v8h8v8h8v32h8v96h8v688h-8v8h-8v8h-8v8h-8v8h-8v-16h-8v-16h-8v56h-8v8h-8v8h-8v8h-8v8h-8v8h-8v8h-8v8h-8v8h-8v8h-8v8h-8v8h-8v8h-8v8h-8v8h-8v8h-8v8h-8v8h-8v8h-8v8h-8v8h-8v8h-8v8h-8v8h-8v8h-8v8h-8v8h-8v8h-8v8h-8v8h-8v8h-8v8h-16v8 h-8v8h-16v8h-16v8h-8v8h-24v8h96v-8h-8v-8h24v-24h8v-8h8v-8h8v-8h8v-8h8v-8h8v-8h8v-8h8v-8h8v-8h8v-8h8v-8h8v-8h8v-8h8v-8h8v-8h8v-8h8v-8h8v-8h8v-8h8v-8h8v-8h8v-8h8v-8h8v-8h8v-8h8v-8h8v-8h8v-8h8v-8h8v-8h8v-8h8v-8h8v-8h8v-8h8v-8h8v-8h8v-8h8v-8h8v8h8v8h8v8h8v8 h8v8h8v8h8v8h8v8h8v8h8v8h8v8h8v8h8v8h8v8h8v8h8v8h8v8h8v8h8v8h8v8h8v8h8v8h8v8h8v8h8v8h8v8h8v8h8v8h8v8h8v32h8v-16h8v16h16v8h8v8h8v8h8v8h8v8h8v8h-8v32h112v-8h-24v-8h-8v-8h-16v-8h-16v-8h-8v-8h8v-16h-16v16h-8v-8h-8v-8h-8v-8h-8v-8h-8v-8h-8v-8h-8v-8h-8v-8h-8v-8 h-8v-8h-8v-8h-8v-8h-8v-8h-8v-8h-8v-8h-8v-8h-8v-8h-8v-8h-8v-8h-8v-8h-8v-8h-8v-8h-8v-8h-8v-8h-8v-8h-8v-8h-8v-8h-8v-8h-8v-8h-8v-8h-8v-8h-8v-8h-8v-8h-8v-8h-8v-8h-8v-8h-8v-8h-8v-24h-16v-128h8v-160h-8v-16h8v-80h-8v-32h8v-64h-8v-48h8v-32h-8v-64h-8v-16h8v-16h-8 v-32h8v-32h8v-48h8v-32h8v-8h8v-8h-104z" />
<glyph unicode="Z" horiz-adv-x="1264" d="M584 80v8h-8v-8h8zM528 0v8h8v8h8v16h-8v16h24v8h-8v40h8v704h-8v336h-8v8h-8v8h-24v16h-16v-8h8v-8h-424v-16h-16v8h-32v-8h-16v-8h-8v-8h-8v64h384v-8h8v-8h16v8h-8v8h224v-8h-8v-8h-8v-32h-8v-48h-8v-992h8v-48h8v-8h8v-8h488v8h16v-8h8v16h24v8h8v8h8v-64h-640z" />
<glyph unicode="^" d="M768 32v8h32v8h32v8h32v8h8v8h16v8h8v8h8v8h16v8h8v8h8v8h8v8h8v8h8v8h8v8h8v8h8v16h8v16h8v16h8v16h8v16h8v32h8v32h8v144h-8v80h-8v32h-8v48h-8v32h-8v16h-8v16h-8v16h-8v16h-8v16h-8v8h-8v8h-8v8h-8v8h-8v8h-8v8h-8v8h-8v8h-8v8h-8v8h-16v8h-16v8h-8v8h-32v8h-768v-64 h-8v-64h-8v-288h8v-80h8v-32h8v-48h8v-32h8v-16h8v-16h8v-16h8v-16h8v-16h8v-8h8v-8h8v-8h8v-8h8v-8h8v-8h8v-8h8v-8h8v-8h8v-8h16v-8h16v-8h8v-8h32v-8h512zM272 0v8h-32v8h-32v8h-16v8h-16v8h-16v8h-16v8h-8v8h-8v8h-8v8h-8v8h-8v8h-8v8h-8v8h-8v16h-8v8h-8v8h-8v16h-8v16 h-8v16h-8v16h-8v16h-8v32h-8v80h-8v432h8v64h8v64h8v48h8v48h8v48h8v32h8v8h8v16h8v8h8v8h8v8h16v8h8v8h16v8h16v8h16v8h16v8h32v8h48v8h400v-64h-8v8h-8v8h-16v8h-32v8h-224v-8h-80v-8h-64v-8h-32v-8h-32v-8h-16v-8h-16v-8h-8v-8h-8v-8h-8v-8h-8v-16h-8v-16h-8v-48h-8v-48 h-8v-48h-8v-32h744v-8h32v-8h32v-8h16v-8h16v-8h16v-8h16v-8h8v-8h8v-8h8v-8h8v-8h8v-8h8v-8h8v-8h8v-16h8v-8h8v-8h8v-16h8v-16h8v-16h8v-16h8v-16h8v-32h8v-80h8v-208h-8v-48h-8v-32h-8v-16h-8v-16h-8v-16h-8v-16h-8v-16h-8v-8h-8v-8h-8v-16h-8v-8h-8v-8h-8v-8h-8v-8h-8 v-8h-8v-8h-8v-8h-8v-8h-16v-8h-16v-8h-16v-8h-16v-8h-32v-8h-48v-8h-64v-8h-112v-8h-336z" />
<glyph unicode="a" horiz-adv-x="1264" d="M888 864v32h-8v32h-8v32h-8v32h-8v32h-8v32h-8v32h-8v16h-8v32h-8v8h-8v8h-456v-8h-8v-8h-8v-16h-8v-32h-8v-32h-8v-32h-8v-32h-8v-32h-8v-32h-8v-32h-8v-32h616zM0 0v8h8v8h8v8h8v8h8v16h8v32h8v32h8v32h8v32h8v32h8v32h8v32h8v32h8v32h8v32h8v32h8v32h8v32h8v32h8v32h8 v32h8v32h8v32h8v32h8v32h8v32h8v16h8v48h8v32h8v32h8v32h8v32h8v32h8v32h8v32h8v32h8v32h8v32h8v48h-8v16h-8v8h-16v8h624v-8h-16v-8h-8v-16h-8v-48h8v-32h8v-32h8v-32h8v-32h8v-32h8v-32h8v-32h8v-32h8v-32h8v-32h8v-32h8v-32h8v-32h8v-32h8v-32h8v-32h8v-32h8v-32h8v-32h8 v-32h8v-32h8v-32h8v-32h8v-32h8v-32h8v-32h8v-32h8v-32h8v-32h8v-32h8v-32h8v-32h8v-32h8v-16h8v-8h8v-8h8v-8h8v-8h-96v8h8v24h8v64h-8v32h-8v32h-8v32h-8v32h-8v32h-8v32h-8v32h-8v32h-8v32h-8v48h-8v16h-8v32h-8v32h-8v32h-8v32h-8v32h-8v32h-8v32h-8v32h-8v32h-8v32h-8 v32h-8v32h-648v-32h-8v-32h-8v-32h-8v-32h-8v-32h-8v-32h-8v-32h-8v-32h-8v-32h-8v-32h-8v-32h-8v-32h-8v-32h-8v-32h-8v-32h-8v-32h-8v-32h-8v-32h-8v-32h-8v-32h-8v-48h-8v-32h-8v-32h-8v-72h8v-8h-80z" />
<glyph unicode="b" horiz-adv-x="992" d="M608 32v8h32v8h32v8h32v8h8v8h16v8h8v8h8v8h16v8h8v8h8v8h8v8h8v8h8v8h8v8h8v8h8v16h8v16h8v16h8v16h8v16h8v64h-8v48h-8v32h-8v16h-8v16h-8v16h-8v16h-8v16h-8v8h-8v8h-8v8h-8v8h-8v8h-8v8h-8v8h-8v8h-8v8h-8v8h-16v8h-16v8h-8v8h-32v8h-32v8h-48v8h-512v-496h8v-48h8 v-16h528zM608 624v8h32v8h32v8h32v8h8v8h16v8h8v8h8v8h16v8h8v8h8v8h8v8h8v8h8v8h8v8h8v8h8v16h8v16h8v16h8v16h8v16h8v48h-8v48h-8v32h-8v16h-8v16h-8v16h-8v16h-8v16h-8v8h-8v8h-8v8h-8v8h-8v8h-8v8h-8v8h-8v8h-8v8h-8v8h-16v8h-16v8h-8v8h-32v8h-576v-16h-8v-48h-8v-464 h544zM0 0v8h8v8h8v32h8v48h8v992h-8v48h-8v32h-8v8h-8v8h640v-8h32v-8h32v-8h16v-8h16v-8h16v-8h16v-8h8v-8h8v-8h8v-8h8v-8h8v-8h8v-8h8v-8h8v-16h8v-8h8v-8h8v-16h8v-16h8v-16h8v-16h8v-16h8v-32h8v-80h-8v-16h-8v-16h-8v-16h-8v-16h-8v-16h-8v-16h-8v-8h-8v-8h-8v-16h-8 v-8h-8v-8h-8v-8h-8v-8h-8v-8h-8v-8h-8v-8h-8v-8h-16v-8h-16v-8h-16v-8h-16v-8h-32v-8h-48v-8h16v-8h32v-8h32v-8h16v-8h16v-8h16v-8h16v-8h8v-8h8v-8h8v-8h8v-8h8v-8h8v-8h8v-8h8v-16h8v-8h8v-8h8v-16h8v-16h8v-16h8v-16h8v-16h8v-32h8v-80h-8v-32h-8v-16h-8v-16h-8v-16h-8 v-16h-8v-16h-8v-8h-8v-8h-8v-16h-8v-8h-8v-8h-8v-8h-8v-8h-8v-8h-8v-8h-8v-8h-8v-8h-16v-8h-16v-8h-16v-8h-16v-8h-32v-8h-48v-8h-64v-8h-64v-8h-496z" />
<glyph unicode="c" horiz-adv-x="1072" d="M496 0v8h-144v8h-80v8h-32v8h-32v8h-16v8h-16v8h-16v8h-16v8h-8v8h-8v8h-8v8h-8v8h-8v8h-8v8h-8v8h-8v16h-8v8h-8v8h-8v16h-8v16h-8v16h-8v16h-8v16h-8v32h-8v640h8v32h8v16h8v16h8v16h8v16h8v16h8v8h8v8h8v16h8v8h8v8h8v8h8v8h8v8h8v8h8v8h8v8h16v8h16v8h16v8h16v8h32v8 h48v8h64v8h112v8h512v-64h-8v8h-8v8h-16v8h-32v8h-608v-8h-32v-8h-32v-8h-32v-8h-8v-8h-16v-8h-8v-8h-8v-8h-16v-8h-8v-8h-8v-8h-8v-8h-8v-8h-8v-8h-8v-8h-8v-8h-8v-16h-8v-16h-8v-16h-8v-16h-8v-16h-8v-32h-8v-480h8v-112h8v-48h8v-32h8v-16h8v-16h8v-16h8v-16h8v-16h8v-8 h8v-8h8v-8h8v-8h8v-8h8v-8h8v-8h8v-8h8v-8h8v-8h16v-8h16v-8h8v-8h32v-8h32v-8h48v-8h592v8h32v8h16v8h8v8h8v-64h-496z" />
<glyph unicode="d" horiz-adv-x="1056" d="M688 32v8h32v8h32v8h32v8h8v8h16v8h8v8h8v8h16v8h8v8h8v8h8v8h8v8h8v8h8v8h8v8h8v16h8v16h8v16h8v16h8v16h8v32h8v480h-8v112h-8v48h-8v32h-8v16h-8v16h-8v16h-8v16h-8v16h-8v8h-8v8h-8v8h-8v8h-8v8h-8v8h-8v8h-8v8h-8v8h-8v8h-16v8h-16v8h-8v8h-32v8h-32v8h-48v8h-576 v-16h-8v-48h-8v-992h8v-48h8v-16h608zM0 0v8h8v8h8v32h8v48h8v992h-8v48h-8v32h-8v8h-8v8h496v-8h144v-8h80v-8h32v-8h32v-8h16v-8h16v-8h16v-8h16v-8h8v-8h8v-8h8v-8h8v-8h8v-8h8v-8h8v-8h8v-16h8v-8h8v-8h8v-16h8v-16h8v-16h8v-16h8v-16h8v-32h8v-640h-8v-32h-8v-16h-8 v-16h-8v-16h-8v-16h-8v-16h-8v-8h-8v-8h-8v-16h-8v-8h-8v-8h-8v-8h-8v-8h-8v-8h-8v-8h-8v-8h-8v-8h-16v-8h-16v-8h-16v-8h-16v-8h-32v-8h-48v-8h-64v-8h-112v-8h-528z" />
<glyph unicode="e" horiz-adv-x="1072" d="M592 0v8h-144v8h-96v8h-80v8h-64v8h-48v8h-32v8h-16v8h-16v8h-8v8h-8v8h-8v8h-8v16h-8v16h-8v16h-8v16h-8v32h-8v48h-8v64h-8v576h8v64h8v48h8v32h8v16h8v16h8v16h8v16h8v8h8v8h8v8h8v8h16v8h16v8h32v8h48v8h64v8h80v8h96v8h144v8h384v-64h-8v8h-8v8h-16v8h-32v8h-416v-8 h-112v-8h-160v-8h-32v-8h-32v-8h-32v-8h-8v-8h-8v-8h-8v-8h-8v-8h-8v-16h-8v-16h-8v-16h-8v-32h-8v-32h-8v-32h-8v-64h488v8h32v8h16v8h8v8h8v-96h-8v8h-8v8h-16v8h-32v8h-488v-560h8v-48h8v-32h8v-16h8v-16h8v-16h8v-16h8v-8h8v-8h8v-8h8v-8h8v-8h16v-8h16v-8h32v-8h48v-8 h64v-8h80v-8h112v-8h432v8h32v8h16v8h8v8h8v-64h-400z" />
<glyph unicode="f" horiz-adv-x="1072" d="M8 0v8h8v8h8v32h8v48h8v784h8v64h8v48h8v32h8v16h8v16h8v16h8v16h8v8h8v8h8v8h8v8h16v8h16v8h32v8h48v8h64v8h80v8h96v8h144v8h352v-64h-8v8h-8v8h-16v8h-32v8h-384v-8h-112v-8h-160v-8h-32v-8h-32v-8h-32v-8h-8v-8h-8v-8h-8v-8h-8v-8h-8v-16h-8v-16h-8v-16h-8v-32h-8 v-32h-8v-32h-8v-64h488v8h32v8h16v8h8v8h8v-96h-8v8h-8v8h-16v8h-32v8h-488v-736h8v-48h8v-32h8v-8h8v-8h-96z" />
<glyph unicode="g" horiz-adv-x="1104" d="M496 0v8h-144v8h-80v8h-32v8h-32v8h-16v8h-16v8h-16v8h-16v8h-8v8h-8v8h-8v8h-8v8h-8v8h-8v8h-8v8h-8v16h-8v8h-8v8h-8v16h-8v16h-8v16h-8v16h-8v16h-8v32h-8v640h8v32h8v16h8v16h8v16h8v16h8v16h8v8h8v8h8v16h8v8h8v8h8v8h8v8h8v8h8v8h8v8h8v8h16v8h16v8h16v8h16v8h32v8 h48v8h64v8h112v8h512v-64h-8v8h-8v8h-16v8h-32v8h-608v-8h-32v-8h-32v-8h-32v-8h-8v-8h-16v-8h-8v-8h-8v-8h-16v-8h-8v-8h-8v-8h-8v-8h-8v-8h-8v-8h-8v-8h-8v-8h-8v-16h-8v-16h-8v-16h-8v-16h-8v-16h-8v-32h-8v-480h8v-112h8v-48h8v-32h8v-16h8v-16h8v-16h8v-16h8v-16h8v-8 h8v-8h8v-8h8v-8h8v-8h8v-8h8v-8h8v-8h8v-8h8v-8h16v-8h16v-8h8v-8h32v-8h32v-8h48v-8h592v8h16v8h8v8h8v200h-8v48h-8v32h-8v8h-8v8h96v-8h-8v-8h-8v-32h-8v-48h-8v-256h-496z" />
<glyph unicode="h" horiz-adv-x="1232" d="M0 0v8h8v8h8v32h8v48h8v992h-8v48h-8v32h-8v8h-8v8h104v-8h-8v-8h-8v-32h-8v-48h-8v-224h1032v224h-8v48h-8v32h-8v8h-8v8h96v-8h-8v-8h-8v-32h-8v-48h-8v-992h8v-48h8v-32h8v-8h8v-8h-96v8h8v8h8v32h8v48h8v736h-1032v-736h8v-48h8v-32h8v-8h8v-8h-104z" />
<glyph unicode="i" horiz-adv-x="160" d="M0 0v8h8v8h8v32h8v48h8v992h-8v48h-8v32h-8v8h-8v8h96v-8h-8v-8h-8v-32h-8v-48h-8v-992h8v-48h8v-32h8v-8h8v-8h-96z" />
<glyph unicode="j" horiz-adv-x="272" d="M-336 -256v96h8v-8h8v-8h16v-8h32v-8h256v8h32v8h32v8h32v8h8v8h8v8h8v8h8v8h8v16h8v16h8v16h8v32h8v32h8v1104h-8v48h-8v32h-8v8h-8v8h96v-8h-8v-8h-8v-32h-8v-48h-8v-1088h-8v-48h-8v-32h-8v-16h-8v-16h-8v-16h-8v-16h-8v-8h-8v-8h-8v-8h-8v-8h-16v-8h-16v-8h-32v-8 h-48v-8h-64v-8h-80v-8h-128v-8h-32v-8h-16v-8h-8v-8h-8z" />
<glyph unicode="k" horiz-adv-x="848" d="M0 0v8h8v8h8v32h8v48h8v992h-8v48h-8v32h-8v8h-8v8h96v-8h-8v-8h-8v-32h-8v-48h-8v-464h512v8h8v8h8v16h8v16h8v32h8v32h8v32h8v32h8v32h8v32h8v32h8v32h8v32h8v32h8v32h8v32h8v48h8v72h-8v8h80v-8h-8v-8h-8v-8h-8v-8h-8v-16h-8v-32h-8v-32h-8v-32h-8v-32h-8v-32h-8v-32 h-8v-32h-8v-32h-8v-32h-8v-32h-8v-32h-8v-32h-8v-32h-8v-32h-8v-32h-8v-16h-8v-16h-8v-32h8v-32h8v-32h8v-32h8v-32h8v-32h8v-32h8v-32h8v-32h8v-32h8v-32h8v-32h8v-32h8v-32h8v-32h8v-32h8v-32h8v-32h8v-16h8v-8h8v-8h8v-8h8v-8h-80v8h8v72h-8v48h-8v32h-8v32h-8v32h-8v32 h-8v32h-8v32h-8v32h-8v32h-8v32h-8v32h-8v32h-8v32h-8v32h-8v32h-8v8h-8v8h-512v-496h8v-48h8v-32h8v-8h8v-8h-96z" />
<glyph unicode="l" horiz-adv-x="1200" d="M0 0v8h8v8h8v32h8v48h8v992h-8v48h-8v32h-8v8h-8v8h96v-8h-8v-8h-8v-32h-8v-48h-8v-992h8v-48h8v-8h8v-8h1016v8h32v8h16v8h8v8h8v-64h-1168z" />
<glyph unicode="m" horiz-adv-x="1120" d="M0 0v8h8v8h8v8h8v8h8v16h8v32h8v32h8v32h8v32h8v32h8v32h8v32h8v32h8v32h8v32h8v32h8v32h8v32h8v32h8v32h8v32h8v32h8v32h8v32h8v32h8v32h8v32h8v32h8v32h8v32h8v32h8v32h8v32h8v32h8v32h8v32h8v32h8v32h8v32h8v32h8v16h16v-16h8v-32h8v-32h8v-32h8v-32h8v-32h8v-32h8 v-32h8v-32h8v-32h8v-32h8v-32h8v-32h8v-32h8v-32h8v-32h8v-32h8v-32h8v-32h8v-32h8v-32h8v-32h8v-32h16v32h8v32h8v32h8v32h8v32h8v32h8v32h8v32h8v32h8v32h8v32h8v32h8v32h8v32h8v32h8v32h8v32h8v32h8v32h8v32h8v32h8v32h8v16h16v-16h8v-32h8v-32h8v-32h8v-32h8v-32h8v-32 h8v-32h8v-32h8v-32h8v-32h8v-32h8v-32h8v-32h8v-32h8v-32h8v-32h8v-32h8v-32h8v-32h8v-32h8v-32h8v-32h8v-32h8v-32h8v-32h8v-32h8v-32h8v-32h8v-32h8v-32h8v-32h8v-32h8v-32h8v-32h8v-32h8v-16h8v-8h8v-8h8v-8h8v-8h-96v8h8v24h8v64h-8v32h-8v32h-8v32h-8v32h-8v32h-8v32 h-8v32h-8v32h-8v32h-8v32h-8v32h-8v32h-8v32h-8v32h-8v32h-8v32h-8v32h-8v32h-8v32h-8v32h-8v32h-8v32h-8v32h-8v32h-8v32h-8v32h-8v32h-8v32h-8v32h-8v32h-8v32h-8v-32h-8v-32h-8v-32h-8v-32h-8v-32h-8v-32h-8v-32h-8v-32h-8v-32h-8v-32h-8v-32h-8v-32h-8v-32h-8v-32h-8 v-32h-8v-32h-8v-32h-8v-32h-8v-32h-8v-32h-8v-32h-8v-32h-8v-32h-16v16h-8v32h-8v16h-8v32h-8v32h-8v32h-8v32h-8v32h-8v32h-8v32h-8v32h-8v32h-8v32h-8v32h-8v32h-8v32h-8v32h-8v32h-8v32h-8v32h-8v32h-8v32h-8v32h-8v32h-8v-32h-8v-32h-8v-32h-8v-32h-8v-32h-8v-32h-8v-32 h-8v-32h-8v-32h-8v-32h-8v-32h-8v-32h-8v-32h-8v-32h-8v-32h-8v-32h-8v-32h-8v-32h-8v-32h-8v-32h-8v-32h-8v-32h-8v-32h-8v-32h-8v-32h-8v-32h-8v-32h-8v-32h-8v-32h-8v-32h-8v-48h-8v-72h8v-8h-80z" />
<glyph unicode="n" horiz-adv-x="960" d="M0 0v8h8v8h8v32h8v48h8v992h-8v48h-8v32h-8v8h-8v8h48v-8h8v-8h8v-8h8v-8h8v-8h8v-8h8v-8h8v-8h8v-8h8v-8h8v-8h8v-8h8v-8h8v-8h8v-8h8v-8h8v-8h8v-8h8v-8h8v-8h8v-8h8v-8h8v-8h8v-8h8v-8h8v-8h8v-8h8v-8h8v-8h8v-8h8v-8h8v-8h8v-8h8v-8h8v-8h8v-8h8v-8h8v-8h8v-8h8v-8h8 v-8h8v-8h8v-8h8v-8h8v-8h8v-8h8v-8h8v-8h8v-8h8v-8h8v-8h8v-8h8v-8h8v-8h8v-8h8v-8h8v-8h8v-8h8v-8h8v-8h8v-8h8v-8h8v-8h8v-8h8v-8h8v-8h8v-8h8v-8h8v-8h8v-8h8v-8h8v-8h8v-8h8v-8h8v-8h8v-8h8v-8h8v-8h8v-8h8v-8h8v-8h8v-8h8v-8h8v-8h8v-8h8v-8h8v-8h8v-8h8v-8h8v-8h8v-8 h8v-8h8v-8h8v-8h8v-8h8v-8h8v-8h8v-8h8v688h-8v48h-8v32h-8v8h-8v8h96v-8h-8v-8h-8v-32h-8v-48h-8v-992h8v-48h8v-32h8v-8h8v-8h-96v8h8v8h8v32h8v48h8v264h-8v8h-8v8h-8v8h-8v8h-8v8h-8v8h-8v8h-8v8h-8v8h-8v8h-8v8h-8v8h-8v8h-8v8h-8v8h-8v8h-8v8h-8v8h-8v8h-8v8h-8v8h-8 v8h-8v8h-8v8h-8v8h-8v8h-8v8h-8v8h-8v8h-8v8h-8v8h-8v8h-8v8h-8v8h-8v8h-8v8h-8v8h-8v8h-8v8h-8v8h-8v8h-8v8h-8v8h-8v8h-8v8h-8v8h-8v8h-8v8h-8v8h-8v8h-8v8h-8v8h-8v8h-8v8h-8v8h-8v8h-8v8h-8v8h-8v8h-8v8h-8v8h-8v8h-8v8h-8v8h-8v8h-8v8h-8v8h-8v8h-8v8h-8v8h-8v8h-8v8 h-8v8h-8v8h-8v8h-8v8h-8v8h-8v8h-8v8h-8v8h-8v8h-8v8h-8v8h-8v8h-8v8h-8v8h-8v8h-8v8h-8v8h-8v8h-8v8h-8v8h-8v8h-8v8h-8v-24h-8v-992h8v-48h8v-32h8v-8h8v-8h-96z" />
<glyph unicode="o" horiz-adv-x="1248" d="M864 32v8h32v8h32v8h32v8h8v8h16v8h8v8h8v8h16v8h8v8h8v8h8v8h8v8h8v8h8v8h8v8h8v16h8v16h8v16h8v16h8v16h8v32h8v480h-8v112h-8v48h-8v32h-8v16h-8v16h-8v16h-8v16h-8v16h-8v8h-8v8h-8v8h-8v8h-8v8h-8v8h-8v8h-8v8h-8v8h-8v8h-16v8h-16v8h-8v8h-32v8h-32v8h-48v8h-528 v-8h-32v-8h-32v-8h-32v-8h-8v-8h-16v-8h-8v-8h-8v-8h-16v-8h-8v-8h-8v-8h-8v-8h-8v-8h-8v-8h-8v-8h-8v-8h-8v-16h-8v-16h-8v-16h-8v-16h-8v-16h-8v-32h-8v-480h8v-112h8v-48h8v-32h8v-16h8v-16h8v-16h8v-16h8v-16h8v-8h8v-8h8v-8h8v-8h8v-8h8v-8h8v-8h8v-8h8v-8h8v-8h16v-8 h16v-8h8v-8h32v-8h32v-8h48v-8h528zM496 0v8h-144v8h-80v8h-32v8h-32v8h-16v8h-16v8h-16v8h-16v8h-8v8h-8v8h-8v8h-8v8h-8v8h-8v8h-8v8h-8v16h-8v8h-8v8h-8v16h-8v16h-8v16h-8v16h-8v16h-8v32h-8v640h8v32h8v16h8v16h8v16h8v16h8v16h8v8h8v8h8v16h8v8h8v8h8v8h8v8h8v8h8v8h8 v8h8v8h16v8h16v8h16v8h16v8h32v8h48v8h64v8h112v8h208v-8h144v-8h80v-8h32v-8h32v-8h16v-8h16v-8h16v-8h16v-8h8v-8h8v-8h8v-8h8v-8h8v-8h8v-8h8v-8h8v-16h8v-8h8v-8h8v-16h8v-16h8v-16h8v-16h8v-16h8v-32h8v-640h-8v-32h-8v-16h-8v-16h-8v-16h-8v-16h-8v-16h-8v-8h-8v-8h-8 v-16h-8v-8h-8v-8h-8v-8h-8v-8h-8v-8h-8v-8h-8v-8h-8v-8h-16v-8h-16v-8h-16v-8h-16v-8h-32v-8h-48v-8h-64v-8h-112v-8h-208z" />
<glyph unicode="p" horiz-adv-x="1088" d="M704 384v8h32v8h32v8h32v8h8v8h16v8h8v8h8v8h16v8h8v8h8v8h8v8h8v8h8v8h8v8h8v8h8v16h8v16h8v16h8v16h8v16h8v32h8v32h8v112h-8v80h-8v32h-8v48h-8v32h-8v16h-8v16h-8v16h-8v16h-8v16h-8v8h-8v8h-8v8h-8v8h-8v8h-8v8h-8v8h-8v8h-8v8h-8v8h-16v8h-16v8h-8v8h-32v8h-672 v-16h-8v-48h-8v-704h640zM0 0v8h8v8h8v32h8v48h8v992h-8v48h-8v32h-8v8h-8v8h736v-8h32v-8h32v-8h16v-8h16v-8h16v-8h16v-8h8v-8h8v-8h8v-8h8v-8h8v-8h8v-8h8v-8h8v-16h8v-8h8v-8h8v-16h8v-16h8v-16h8v-16h8v-16h8v-32h8v-80h8v-176h-8v-48h-8v-32h-8v-16h-8v-16h-8v-16h-8 v-16h-8v-16h-8v-8h-8v-8h-8v-16h-8v-8h-8v-8h-8v-8h-8v-8h-8v-8h-8v-8h-8v-8h-8v-8h-16v-8h-16v-8h-16v-8h-16v-8h-32v-8h-48v-8h-64v-8h-112v-8h-480v-256h8v-48h8v-32h8v-8h8v-8h-96z" />
<glyph unicode="q" horiz-adv-x="1232" d="M864 32v8h32v8h32v8h32v8h8v8h16v8h8v8h8v8h16v8h8v8h8v8h8v8h8v8h8v8h8v8h8v8h8v16h8v16h8v16h8v16h8v16h8v32h8v480h-8v112h-8v48h-8v32h-8v16h-8v16h-8v16h-8v16h-8v16h-8v8h-8v8h-8v8h-8v8h-8v8h-8v8h-8v8h-8v8h-8v8h-8v8h-16v8h-16v8h-8v8h-32v8h-32v8h-48v8h-528 v-8h-32v-8h-32v-8h-32v-8h-8v-8h-16v-8h-8v-8h-8v-8h-16v-8h-8v-8h-8v-8h-8v-8h-8v-8h-8v-8h-8v-8h-8v-8h-8v-16h-8v-16h-8v-16h-8v-16h-8v-16h-8v-32h-8v-480h8v-112h8v-48h8v-32h8v-16h8v-16h8v-16h8v-16h8v-16h8v-8h8v-8h8v-8h8v-8h8v-8h8v-8h8v-8h8v-8h8v-8h8v-8h16v-8 h16v-8h8v-8h32v-8h32v-8h48v-8h528zM920 -256v8h-8v8h-16v8h-32v8h-128v8h-80v8h-64v8h-48v8h-32v8h-16v8h-16v8h-8v8h-8v8h-8v8h-8v16h-8v16h-8v16h-8v16h-8v32h-8v48h-8v8h-48v8h-80v8h-32v8h-32v8h-16v8h-16v8h-16v8h-16v8h-8v8h-8v8h-8v8h-8v8h-8v8h-8v8h-8v8h-8v16h-8 v8h-8v8h-8v16h-8v16h-8v16h-8v16h-8v16h-8v32h-8v640h8v32h8v16h8v16h8v16h8v16h8v16h8v8h8v8h8v16h8v8h8v8h8v8h8v8h8v8h8v8h8v8h8v8h16v8h16v8h16v8h16v8h32v8h48v8h64v8h112v8h208v-8h144v-8h80v-8h32v-8h32v-8h16v-8h16v-8h16v-8h16v-8h8v-8h8v-8h8v-8h8v-8h8v-8h8v-8h8 v-8h8v-16h8v-8h8v-8h8v-16h8v-16h8v-16h8v-16h8v-16h8v-32h8v-640h-8v-32h-8v-16h-8v-16h-8v-16h-8v-16h-8v-16h-8v-8h-8v-8h-8v-16h-8v-8h-8v-8h-8v-8h-8v-8h-8v-8h-8v-8h-8v-8h-8v-8h-16v-8h-16v-8h-16v-8h-16v-8h-32v-8h-48v-8h-64v-8h-112v-8h-208v8h-64v-24h8v-32h8 v-32h8v-16h8v-16h8v-16h8v-8h8v-8h8v-8h8v-8h8v-8h32v-8h32v-8h32v-8h256v8h32v8h16v8h8v8h8v-96h-8z" />
<glyph unicode="r" horiz-adv-x="928" d="M576 624v8h32v8h32v8h32v8h8v8h16v8h8v8h8v8h16v8h8v8h8v8h8v8h8v8h8v8h8v8h8v8h8v16h8v16h8v16h8v16h8v16h8v48h-8v48h-8v32h-8v16h-8v16h-8v16h-8v16h-8v16h-8v8h-8v8h-8v8h-8v8h-8v8h-8v8h-8v8h-8v8h-8v8h-8v8h-16v8h-16v8h-8v8h-32v8h-544v-16h-8v-48h-8v-464h512z M0 0v8h8v8h8v32h8v48h8v992h-8v48h-8v32h-8v8h-8v8h608v-8h32v-8h32v-8h16v-8h16v-8h16v-8h16v-8h8v-8h8v-8h8v-8h8v-8h8v-8h8v-8h8v-8h8v-16h8v-8h8v-8h8v-16h8v-16h8v-16h8v-16h8v-16h8v-32h8v-80h-8v-16h-8v-16h-8v-16h-8v-16h-8v-16h-8v-16h-8v-8h-8v-8h-8v-16h-8v-8h-8 v-8h-8v-8h-8v-8h-8v-8h-8v-8h-8v-8h-8v-8h-16v-8h-16v-8h-16v-8h-16v-8h-32v-8h-48v-8h16v-16h8v-32h8v-32h8v-32h8v-32h8v-32h8v-32h8v-32h8v-32h8v-32h8v-32h8v-32h8v-32h8v-32h8v-32h8v-32h8v-32h8v-32h8v-16h8v-8h8v-8h8v-8h8v-8h-80v8h8v72h-8v48h-8v32h-8v32h-8v32h-8 v32h-8v32h-8v32h-8v32h-8v32h-8v32h-8v32h-8v32h-8v32h-8v32h-8v32h-8v8h-8v8h-512v-496h8v-48h8v-32h8v-8h8v-8h-96z" />
<glyph unicode="s" horiz-adv-x="1200" d="M0 0v64h8v-8h8v-8h16v-8h32v-8h320v8h32v8h32v8h32v8h8v8h8v8h8v8h8v8h8v16h8v16h8v16h8v32h8v32h8v752h8v48h8v32h8v16h8v16h8v16h8v16h8v8h8v8h8v8h8v8h16v8h16v8h32v8h48v8h64v8h112v8h224v-64h-8v8h-8v8h-16v8h-32v8h-320v-8h-32v-8h-32v-8h-32v-8h-8v-8h-8v-8h-8v-8 h-8v-8h-8v-16h-8v-16h-8v-16h-8v-32h-8v-32h-8v-752h-8v-48h-8v-32h-8v-16h-8v-16h-8v-16h-8v-16h-8v-8h-8v-8h-8v-8h-8v-8h-16v-8h-16v-8h-32v-8h-48v-8h-64v-8h-112v-8h-224z" />
<glyph unicode="t" horiz-adv-x="1296" d="M544 0v8h8v8h8v32h8v48h8v992h-8v48h-8v8h-16v8h-480v-8h-32v-8h-16v-8h-8v-8h-8v64h1168v-64h-8v8h-8v8h-16v8h-32v8h-464v-8h-16v-8h-8v-48h-8v-992h8v-48h8v-32h8v-8h8v-8h-96z" />
<glyph unicode="u" horiz-adv-x="1040" d="M400 0v8h-112v8h-64v8h-48v8h-32v8h-16v8h-16v8h-8v8h-8v8h-8v8h-8v16h-8v16h-8v16h-8v16h-8v32h-8v48h-8v912h-8v32h-8v8h-8v8h96v-8h-8v-8h-8v-32h-8v-48h-8v-912h8v-32h8v-16h8v-16h8v-16h8v-8h8v-8h8v-8h8v-8h8v-8h32v-8h32v-8h32v-8h480v8h32v8h32v8h32v8h8v8h8v8h8 v8h8v8h8v16h8v16h8v16h8v32h8v64h8v848h-8v48h-8v32h-8v8h-8v8h96v-8h-8v-8h-8v-32h-8v-48h-8v-864h-8v-48h-8v-32h-8v-16h-8v-16h-8v-16h-8v-16h-8v-8h-8v-8h-8v-8h-8v-8h-16v-8h-16v-8h-32v-8h-48v-8h-64v-8h-112v-8h-160z" />
<glyph unicode="v" horiz-adv-x="1248" d="M272 0v8h16v8h8v16h8v48h-8v32h-8v32h-8v32h-8v32h-8v32h-8v32h-8v32h-8v32h-8v32h-8v32h-8v32h-8v32h-8v32h-8v32h-8v32h-8v32h-8v32h-8v32h-8v32h-8v32h-8v32h-8v32h-8v32h-8v32h-8v32h-8v32h-8v32h-8v32h-8v32h-8v32h-8v32h-8v32h-8v32h-8v16h-8v8h-8v8h-8v8h-8v8h96 v-8h-8v-24h-8v-64h8v-32h8v-32h8v-32h8v-32h8v-32h8v-32h8v-32h8v-32h8v-32h8v-32h8v-32h8v-32h8v-32h8v-32h8v-32h8v-32h8v-32h8v-32h8v-32h8v-32h8v-32h8v-32h8v-32h8v-32h8v-32h8v-32h8v-32h8v-32h8v-32h8v-32h8v-32h8v-16h8v-32h8v-16h472v16h8v16h8v32h8v32h8v32h8v32 h8v32h8v32h8v32h8v32h8v32h8v32h8v32h8v32h8v32h8v32h8v32h8v32h8v32h8v32h8v32h8v32h8v32h8v32h8v32h8v32h8v32h8v32h8v32h8v32h8v32h8v32h8v32h8v48h8v72h-8v8h80v-8h-8v-8h-8v-8h-8v-8h-8v-16h-8v-32h-8v-32h-8v-32h-8v-32h-8v-32h-8v-32h-8v-32h-8v-32h-8v-32h-8v-32h-8 v-32h-8v-32h-8v-32h-8v-32h-8v-32h-8v-32h-8v-32h-8v-32h-8v-32h-8v-32h-8v-32h-8v-32h-8v-32h-8v-32h-8v-32h-8v-32h-8v-32h-8v-32h-8v-32h-8v-32h-8v-32h-8v-32h-8v-32h-8v-48h8v-16h8v-8h16v-8h-624z" />
<glyph unicode="w" horiz-adv-x="1120" d="M320 0v16h-8v32h-8v32h-8v32h-8v32h-8v32h-8v32h-8v32h-8v32h-8v32h-8v32h-8v32h-8v32h-8v32h-8v32h-8v32h-8v32h-8v32h-8v32h-8v32h-8v32h-8v32h-8v32h-8v32h-8v32h-8v32h-8v32h-8v32h-8v32h-8v32h-8v32h-8v32h-8v32h-8v32h-8v32h-8v32h-8v16h-8v8h-8v8h-8v8h-8v8h96v-8 h-8v-24h-8v-64h8v-32h8v-32h8v-32h8v-32h8v-32h8v-32h8v-32h8v-32h8v-32h8v-32h8v-32h8v-32h8v-32h8v-32h8v-32h8v-32h8v-32h8v-32h8v-32h8v-32h8v-32h8v-32h8v-32h8v-32h8v-32h8v-32h8v-32h8v-32h8v-32h8v-32h8v-32h8v32h8v32h8v32h8v32h8v32h8v32h8v32h8v32h8v32h8v32h8 v32h8v32h8v32h8v32h8v32h8v32h8v32h8v32h8v32h8v32h8v32h8v32h8v32h16v-16h8v-32h8v-16h8v-32h8v-32h8v-32h8v-32h8v-32h8v-32h8v-32h8v-32h8v-32h8v-32h8v-32h8v-32h8v-32h8v-32h8v-32h8v-32h8v-32h8v-32h8v-32h8v-32h8v-32h8v32h8v32h8v32h8v32h8v32h8v32h8v32h8v32h8v32 h8v32h8v32h8v32h8v32h8v32h8v32h8v32h8v32h8v32h8v32h8v32h8v32h8v32h8v32h8v32h8v32h8v32h8v32h8v32h8v32h8v32h8v48h8v72h-8v8h80v-8h-8v-8h-8v-8h-8v-8h-8v-16h-8v-32h-8v-32h-8v-32h-8v-32h-8v-32h-8v-32h-8v-32h-8v-32h-8v-32h-8v-32h-8v-32h-8v-32h-8v-32h-8v-32h-8 v-32h-8v-32h-8v-32h-8v-32h-8v-32h-8v-32h-8v-32h-8v-32h-8v-32h-8v-32h-8v-32h-8v-32h-8v-32h-8v-32h-8v-32h-8v-32h-8v-32h-8v-32h-8v-32h-8v-32h-8v-32h-8v-16h-16v16h-8v32h-8v32h-8v32h-8v32h-8v32h-8v32h-8v32h-8v32h-8v32h-8v32h-8v32h-8v32h-8v32h-8v32h-8v32h-8v32 h-8v32h-8v32h-8v32h-8v32h-8v32h-8v32h-16v-32h-8v-32h-8v-32h-8v-32h-8v-32h-8v-32h-8v-32h-8v-32h-8v-32h-8v-32h-8v-32h-8v-32h-8v-32h-8v-32h-8v-32h-8v-32h-8v-32h-8v-32h-8v-32h-8v-32h-8v-32h-8v-32h-8v-16h-16z" />
<glyph unicode="x" horiz-adv-x="1360" d="M0 0v8h24v8h16v8h16v8h16v8h8v8h16v8h8v8h8v8h8v8h8v8h8v8h8v8h8v8h8v8h8v8h8v8h8v8h8v8h8v8h8v8h8v8h8v8h8v8h8v8h8v8h8v8h8v8h8v8h8v8h8v8h8v8h8v8h8v8h8v8h8v8h8v8h8v8h8v8h8v8h8v8h8v8h8v8h8v8h8v8h8v8h8v8h8v8h8v8h8v8h8v8h8v8h8v8h8v8h8v8h8v8h8v8h8v8h8v8h8v8h8v8 h8v8h8v8h8v8h8v8h8v8h8v8h8v8h8v8h8v8h8v8h8v8h8v8h8v8h-8v8h-8v8h-8v8h-8v8h-8v8h-8v8h-8v8h-8v8h-8v8h-8v8h-8v8h-8v8h-8v8h-8v8h-8v8h-8v8h-8v8h-8v8h-8v8h-8v8h-8v8h-8v8h-8v8h-8v8h-8v8h-8v8h-8v8h-8v8h-8v8h-8v8h-8v8h-8v8h-8v8h-8v8h-8v8h-8v8h-8v8h-8v8h-8v8h-8v8 h-8v8h-8v8h-8v8h-8v8h-8v8h-8v8h-8v8h-8v8h-8v8h-8v8h-8v8h-8v8h-8v8h-8v8h-8v8h-8v8h-8v8h-8v8h-8v8h-8v8h-8v8h-8v8h-8v8h-8v8h-8v8h-8v8h-8v8h-8v8h-16v8h-8v8h-16v8h-16v8h-8v8h-24v8h96v-8h-8v-8h8v-8h8v-8h8v-8h8v-8h8v-8h8v-8h8v-8h8v-8h8v-8h8v-8h8v-8h8v-8h8v-8h8 v-8h8v-8h8v-8h8v-8h8v-8h8v-8h8v-8h8v-8h8v-8h8v-8h8v-8h8v-8h8v-8h8v-8h8v-8h8v-8h8v-8h8v-8h8v-8h8v-8h8v-8h8v-8h8v-8h8v-8h8v-8h8v-8h8v-8h8v-8h8v-8h8v-8h8v-8h8v-8h8v-8h8v-8h8v-8h8v-8h8v-8h8v-8h8v-8h8v-8h8v-8h8v-8h8v-8h8v-8h8v-8h8v-8h8v-8h8v-8h8v-8h8v-16h16 v-8h8v-8h8v-8h8v-8h8v-8h8v-8h8v8h8v8h8v8h8v8h8v8h8v8h8v8h8v8h8v8h8v8h8v8h8v8h8v8h8v8h8v8h8v8h8v8h8v8h8v8h8v8h8v8h8v8h8v8h8v8h8v8h8v8h8v8h8v8h8v8h8v8h8v8h8v8h8v8h8v8h8v8h8v8h8v8h8v8h8v8h8v8h8v8h8v8h8v8h8v8h8v8h8v8h8v8h8v8h8v8h8v8h8v8h8v8h8v8h8v8h8v8h8v8h8 v8h8v8h8v8h8v8h8v8h8v8h8v8h8v8h8v8h8v8h8v8h8v8h8v8h8v16h-8v8h96v-8h-24v-8h-8v-8h-16v-8h-16v-8h-8v-8h-16v-8h-8v-8h-8v-8h-8v-8h-8v-8h-8v-8h-8v-8h-8v-8h-8v-8h-8v-8h-8v-8h-8v-8h-8v-8h-8v-8h-8v-8h-8v-8h-8v-8h-8v-8h-8v-8h-8v-8h-8v-8h-8v-8h-8v-8h-8v-8h-8v-8h-8 v-8h-8v-8h-8v-8h-8v-8h-8v-8h-8v-8h-8v-8h-8v-8h-8v-8h-8v-8h-8v-8h-8v-8h-8v-8h-8v-8h-8v-8h-8v-8h-8v-8h-8v-8h-8v-8h-8v-8h-8v-8h-8v-8h-8v-8h-8v-8h-8v-8h-8v-8h-8v-8h-8v-8h-8v-8h-8v-8h-8v-8h-8v-8h-8v-8h-8v-8h-8v-8h-8v-8h-8v-8h-8v-8h-8v-8h-8v-8h-8v-8h-8v-8h-8 v-16h8v-8h8v-8h8v-8h8v-8h8v-8h8v-8h8v-8h8v-8h8v-8h8v-8h8v-8h8v-8h8v-8h8v-8h8v-8h8v-8h8v-8h8v-8h8v-8h8v-8h8v-8h8v-8h8v-8h8v-8h8v-8h8v-8h8v-8h8v-8h8v-8h8v-8h8v-8h8v-8h8v-8h8v-8h8v-8h8v-8h8v-8h8v-8h8v-8h8v-8h8v-8h8v-8h8v-8h8v-8h8v-8h8v-8h8v-8h8v-8h8v-8h8v-8 h8v-8h8v-8h8v-8h8v-8h8v-8h8v-8h8v-8h8v-8h8v-8h8v-8h8v-8h8v-8h8v-8h8v-8h8v-8h8v-8h8v-8h16v-8h8v-8h16v-8h16v-8h8v-8h24v-8h-96v8h8v8h-8v8h-8v8h-8v8h-8v8h-8v8h-8v8h-8v8h-8v8h-8v8h-8v8h-8v8h-8v8h-8v8h-8v8h-8v8h-8v8h-8v8h-8v8h-8v8h-8v8h-8v8h-8v8h-8v8h-8v8h-8v8 h-8v8h-8v8h-8v8h-8v8h-8v8h-8v8h-8v8h-8v8h-8v8h-8v8h-8v8h-8v8h-8v8h-8v8h-8v8h-8v8h-8v8h-8v8h-8v8h-8v8h-8v8h-8v8h-8v8h-8v8h-8v8h-8v8h-8v8h-8v8h-8v8h-8v8h-8v8h-8v8h-8v8h-8v8h-8v8h-8v8h-8v8h-8v8h-8v8h-8v8h-8v8h-8v8h-8v8h-8v8h-16v-8h-8v-8h-8v-8h-8v-8h-8v-8h-8 v-8h-8v-8h-8v-8h-8v-8h-8v-8h-8v-8h-8v-8h-8v-8h-8v-8h-8v-8h-8v-8h-8v-8h-8v-8h-8v-8h-8v-8h-8v-8h-8v-8h-8v-8h-8v-8h-8v-8h-8v-8h-8v-8h-8v-8h-8v-8h-8v-8h-8v-8h-8v-8h-8v-8h-8v-8h-8v-8h-8v-8h-8v-8h-8v-8h-8v-8h-8v-8h-8v-8h-8v-8h-8v-8h-8v-8h-8v-8h-8v-8h-8v-8h-8 v-8h-8v-8h-8v-8h-8v-8h-8v-8h-8v-8h-8v-8h-8v-8h-8v-8h-8v-8h-8v-8h-8v-8h-8v-8h-8v-8h-8v-8h-8v-8h-8v-8h-8v-8h-8v-8h-8v-8h-8v-8h-8v-8h8v-8h8v-8h-112z" />
<glyph unicode="y" horiz-adv-x="912" d="M360 0v8h8v8h8v32h8v48h8v736h-8v8h-8v8h-8v8h-8v8h-8v8h-8v8h-8v8h-8v8h-8v8h-8v8h-8v8h-8v8h-8v8h-8v8h-8v8h-8v8h-8v8h-8v8h-8v8h-8v8h-8v8h-8v8h-8v8h-8v8h-8v8h-8v8h-8v8h-8v8h-8v8h-8v8h-8v8h-8v8h-8v8h-8v8h-8v8h-8v8h-8v8h-8v8h-16v8h-8v8h-16v8h-16v8h-8v8h-24 v8h96v-8h-8v-8h8v-8h8v-8h8v-8h8v-8h8v-8h8v-8h8v-8h8v-8h8v-8h8v-8h8v-8h8v-8h8v-8h8v-8h8v-8h8v-8h8v-8h8v-8h8v-8h8v-8h8v-8h8v-8h8v-8h8v-8h8v-8h8v-8h8v-8h8v-8h8v-8h8v-8h8v-8h8v-8h8v-8h8v-8h8v-8h8v-8h8v-8h8v-8h8v-8h8v-8h8v-8h8v8h8v8h8v8h8v8h8v8h8v8h8v8h8v8h8 v8h8v8h8v8h8v8h8v8h8v8h8v8h8v8h8v8h8v8h8v8h8v8h8v8h8v8h8v8h8v8h8v8h8v8h8v8h8v8h8v8h8v8h8v8h8v8h8v8h8v8h8v8h8v8h8v8h8v8h8v8h8v8h8v16h-8v8h96v-8h-24v-8h-8v-8h-16v-8h-16v-8h-8v-8h-16v-8h-8v-8h-8v-8h-8v-8h-8v-8h-8v-8h-8v-8h-8v-8h-8v-8h-8v-8h-8v-8h-8v-8h-8v-8 h-8v-8h-8v-8h-8v-8h-8v-8h-8v-8h-8v-8h-8v-8h-8v-8h-8v-8h-8v-8h-8v-8h-8v-8h-8v-8h-8v-8h-8v-8h-8v-8h-8v-8h-8v-8h-8v-8h-8v-8h-8v-8h-8v-8h-8v-8h-8v-8h-8v-8h-8v-8h-8v-728h8v-48h8v-32h8v-8h8v-8h-104z" />
<glyph unicode="z" horiz-adv-x="1232" d="M528 0v8h8v8h8v32h8v48h8v992h-8v48h-8v8h-8v8h-472v-8h-32v-8h-16v-8h-8v-8h-8v64h624v-8h-8v-8h-8v-32h-8v-48h-8v-992h8v-48h8v-8h8v-8h488v8h32v8h16v8h8v8h8v-64h-640z" />
<glyph unicode="&#xad;" d="M0 512v96h8v-8h8v-8h32v-8h48v-8h992v8h48v8h32v8h8v8h8v-96h-8v8h-8v8h-32v8h-48v8h-992v-8h-48v-8h-32v-8h-8v-8h-8z" />
<glyph unicode="&#xc6;" horiz-adv-x="1856" d="M544 856v8h80v8h32v-8h232v32h-8v32h-8v32h-8v32h-8v32h-8v32h-8v32h-8v16h-8v32h-8v16h-472v-16h-8v-16h-8v-32h-8v-32h-8v-32h-8v-32h-8v-32h-8v-32h-8v-32h-8v-40h32v8h32v-8h32v8h144v-8h32zM1376 -8v8h-304v8h8v24h8v64h-8v32h-8v32h-8v32h-8v32h-8v32h-8v32h-8v32 h-8v32h-8v32h-8v32h-8v32h-8v56h8v8h-24v32h-8v32h-8v32h-8v32h-8v32h-8v32h-8v32h-8v32h-8v32h-8v32h-40v8h-48v-8h-560v-32h-8v-32h-8v-32h-8v-32h-8v-32h-8v-32h-8v-32h-8v-32h-8v-32h-8v-32h-8v-32h-8v-32h-8v-32h-8v-32h-8v-32h-8v-32h-8v-32h-8v-32h-8v-32h-8v-32h-8 v-32h-8v-32h-8v-48h-8v-72h8v-8h-80v8h8v8h8v8h8v8h8v16h8v32h8v32h8v32h8v32h8v32h8v32h8v32h8v32h8v32h8v32h8v32h8v32h8v32h8v32h8v32h8v32h8v32h8v32h8v32h8v32h8v32h8v32h8v32h8v32h8v32h8v32h8v32h8v32h8v32h8v32h8v32h8v32h8v32h8v48h-8v16h-8v8h-16v8h64v8h112v-8 h-16v-8h112v8h336v8h16v-8h768v-8h-32v-8h48v8h-8v8h56v-64h-8v8h-8v8h-16v8h-96v8h-736v-48h8v-32h8v-32h8v-32h8v-32h8v-32h8v-32h8v-32h8v-16h48v-8h-8v-8h-8v-8h16v8h8v-8h24v8h-24v16h296v8h32v8h16v8h8v8h8v-96h-8v8h-8v8h-16v8h-96v8h-80v8h-16v-8h-184v-16h8v-32h8 v-32h8v-32h8v-32h8v-32h8v-32h8v-32h8v-32h8v-32h8v-32h8v-32h8v-32h8v-32h8v-32h8v-32h8v-32h8v-32h8v-32h8v-32h8v-32h8v-32h8v-32h8v-32h8v-32h8v-16h544v8h32v8h16v8h8v8h8v-72h-48v8h-16v-8h-32v8h-16v-8h-48v8h-16v-8h-192z" />
<glyph unicode="&#xde;" horiz-adv-x="592" d="M224 496v8h32v8h32v8h32v8h8v8h16v8h8v8h8v8h16v8h8v8h8v8h8v8h8v8h8v8h8v8h8v8h8v16h8v16h8v16h8v16h8v16h8v80h-8v32h-8v8h-16v8h-360v-32h-8v-112h8v-32h-8v-144h8v-8h8v-8h128zM8 0v8h8v8h8v32h8v48h8v224h8v496h-8v272h-8v48h-8v32h-8v8h-8v8h104v-8h-8v-8h-8v-32 h-8v-80h-8v-64h8v-16h-8v-16h8v-16h-8v-16h-8v-16h8v-16h-8v-32h448v-144h-8v-16h-8v-16h-8v-16h-8v-16h-8v-16h-8v-16h-8v-8h-8v-8h-8v-16h-8v-8h-8v-8h-8v-8h-8v-8h-8v-8h-8v-8h-8v-8h-8v-8h-16v-8h-16v-8h-16v-8h-16v-8h-32v-8h-48v-8h-152v-64h-8v-320h8v-48h8v-32h8v-8 h8v-8h-104z" />
<glyph unicode="&#xdf;" horiz-adv-x="1360" d="M160 -64v64h8v-8h8v-8h16v-8h32v-8h320v8h32v8h32v8h32v8h8v8h8v8h8v8h8v8h8v16h8v16h8v16h8v32h8v32h8v752h8v48h8v32h8v16h8v16h8v16h8v16h8v8h8v8h8v8h8v8h16v8h16v8h32v8h48v8h64v8h112v8h224v-64h-8v8h-8v8h-16v8h-32v8h-320v-8h-32v-8h-32v-8h-32v-8h-8v-8h-8v-8 h-8v-8h-8v-8h-8v-16h-8v-16h-8v-16h-8v-32h-8v-32h-8v-752h-8v-48h-8v-32h-8v-16h-8v-16h-8v-16h-8v-16h-8v-8h-8v-8h-8v-8h-8v-8h-16v-8h-16v-8h-32v-8h-48v-8h-64v-8h-112v-8h-224zM0 64v64h8v-8h8v-8h16v-8h32v-8h320v8h32v8h32v8h32v8h8v8h8v8h8v8h8v8h8v16h8v16h8v16h8 v32h8v32h8v752h8v48h8v32h8v16h8v16h8v16h8v16h8v8h8v8h8v8h8v8h16v8h16v8h32v8h48v8h64v8h112v8h224v-64h-8v8h-8v8h-16v8h-32v8h-320v-8h-32v-8h-32v-8h-32v-8h-8v-8h-8v-8h-8v-8h-8v-8h-8v-16h-8v-16h-8v-16h-8v-32h-8v-32h-8v-752h-8v-48h-8v-32h-8v-16h-8v-16h-8v-16 h-8v-16h-8v-8h-8v-8h-8v-8h-8v-8h-16v-8h-16v-8h-32v-8h-48v-8h-64v-8h-112v-8h-224z" />
<glyph unicode="&#xe6;" horiz-adv-x="1824" d="M888 864v32h-8v32h-8v32h-8v32h-8v32h-8v32h-8v32h-8v16h-8v32h-8v16h-472v-16h-8v-16h-8v-32h-8v-32h-8v-32h-8v-32h-8v-32h-8v-32h-8v-32h-8v-32h616zM0 0v8h8v8h8v8h8v8h8v16h8v32h8v32h8v32h8v32h8v32h8v32h8v32h8v32h8v32h8v32h8v32h8v32h8v32h8v32h8v32h8v32h8v32 h8v32h8v32h8v32h8v32h8v32h8v32h8v32h8v32h8v32h8v32h8v32h8v32h8v32h8v32h8v32h8v32h8v48h-8v16h-8v8h-16v8h1456v-64h-8v8h-8v8h-16v8h-32v8h-800v-48h8v-32h8v-32h8v-32h8v-32h8v-32h8v-32h8v-32h8v-16h352v8h32v8h16v8h8v8h8v-96h-8v8h-8v8h-16v8h-32v8h-344v-16h8v-32 h8v-32h8v-32h8v-32h8v-32h8v-32h8v-32h8v-32h8v-32h8v-32h8v-32h8v-32h8v-32h8v-32h8v-32h8v-32h8v-32h8v-32h8v-32h8v-32h8v-32h8v-32h8v-32h8v-32h8v-16h544v8h32v8h16v8h8v8h8v-64h-672v8h8v24h8v64h-8v32h-8v32h-8v32h-8v32h-8v32h-8v32h-8v32h-8v32h-8v32h-8v32h-8v32 h-8v32h-8v32h-8v32h-8v32h-8v32h-8v32h-8v32h-8v32h-8v32h-8v32h-8v32h-8v32h-648v-32h-8v-32h-8v-32h-8v-32h-8v-32h-8v-32h-8v-32h-8v-32h-8v-32h-8v-32h-8v-32h-8v-32h-8v-32h-8v-32h-8v-32h-8v-32h-8v-32h-8v-32h-8v-32h-8v-32h-8v-32h-8v-32h-8v-48h-8v-72h8v-8h-80z " />
<glyph unicode="&#xfe;" horiz-adv-x="576" d="M224 496v8h32v8h32v8h32v8h8v8h16v8h8v8h8v8h16v8h8v8h8v8h8v8h8v8h8v8h8v8h8v8h8v16h8v16h8v16h8v16h8v16h8v80h-8v32h-8v8h-16v8h-368v-320h8v-8h8v-8h128zM8 0v8h8v8h8v32h8v48h8v992h-8v48h-8v32h-8v8h-8v8h104v-8h-8v-8h-8v-32h-8v-48h-8v-224h440v-144h-8v-16h-8 v-16h-8v-16h-8v-16h-8v-16h-8v-16h-8v-8h-8v-8h-8v-16h-8v-8h-8v-8h-8v-8h-8v-8h-8v-8h-8v-8h-8v-8h-8v-8h-16v-8h-16v-8h-16v-8h-16v-8h-32v-8h-48v-8h-160v-384h8v-48h8v-32h8v-8h8v-8h-104z" />
<glyph unicode="&#x2000;" horiz-adv-x="682" />
<glyph unicode="&#x2001;" horiz-adv-x="1365" />
<glyph unicode="&#x2002;" horiz-adv-x="682" />
<glyph unicode="&#x2003;" horiz-adv-x="1365" />
<glyph unicode="&#x2004;" horiz-adv-x="455" />
<glyph unicode="&#x2005;" horiz-adv-x="341" />
<glyph unicode="&#x2006;" horiz-adv-x="227" />
<glyph unicode="&#x2007;" horiz-adv-x="227" />
<glyph unicode="&#x2008;" horiz-adv-x="170" />
<glyph unicode="&#x2009;" horiz-adv-x="273" />
<glyph unicode="&#x200a;" horiz-adv-x="75" />
<glyph unicode="&#x2010;" d="M0 512v96h8v-8h8v-8h32v-8h48v-8h992v8h48v8h32v8h8v8h8v-96h-8v8h-8v8h-32v8h-48v8h-992v-8h-48v-8h-32v-8h-8v-8h-8z" />
<glyph unicode="&#x2011;" d="M0 512v96h8v-8h8v-8h32v-8h48v-8h992v8h48v8h32v8h8v8h8v-96h-8v8h-8v8h-32v8h-48v8h-992v-8h-48v-8h-32v-8h-8v-8h-8z" />
<glyph unicode="&#x2012;" d="M0 512v96h8v-8h8v-8h32v-8h48v-8h992v8h48v8h32v8h8v8h8v-96h-8v8h-8v8h-32v8h-48v8h-992v-8h-48v-8h-32v-8h-8v-8h-8z" />
<glyph unicode="&#x2013;" horiz-adv-x="1024" d="M0 512v96h7v-8h7v-8h28v-8h41v-8h858v8h41v8h28v8h7v8h7v-96h-7v8h-7v8h-28v8h-41v8h-858v-8h-41v-8h-28v-8h-7v-8h-7z" />
<glyph unicode="&#x2014;" horiz-adv-x="2048" d="M0 512v96h14v-8h14v-8h55v-8h83v-8h1716v8h83v8h55v8h14v8h14v-96h-14v8h-14v8h-55v8h-83v8h-1716v-8h-83v-8h-55v-8h-14v-8h-14z" />
<glyph unicode="&#x202f;" horiz-adv-x="273" />
<glyph unicode="&#x205f;" horiz-adv-x="341" />
<glyph unicode="&#x25fc;" horiz-adv-x="1180" d="M0 1180h1180v-1180h-1180v1180z" />
</font>
</defs>
</svg>
